<svg width="56" height="75" viewBox="0 0 56 75" fill="none" xmlns="http://www.w3.org/2000/svg">
<path d="M54.4004 0.524902H1.67577C0.850777 0.524902 0.175781 1.1999 0.175781 2.02489V50.5496C0.175781 50.7746 0.250783 50.9246 0.400782 51.0746L24.4006 74.2494C24.5506 74.3994 24.7006 74.4744 24.9256 74.4744H54.4004C55.2254 74.4744 55.9004 73.7994 55.9004 72.9744V2.02489C55.9004 1.1999 55.2254 0.524902 54.4004 0.524902ZM23.4256 68.1745L6.62574 51.8996H23.1256C23.3506 51.8996 23.5006 52.0496 23.5006 52.2746L23.4256 68.1745ZM52.1504 70.7244H27.2506V49.7246C27.2506 48.8996 26.5756 48.2246 25.7506 48.2246H3.92576V4.27488H52.1504V70.7244Z" fill="#0271BC"/>
<path d="M43.5253 62.6244L49.7503 48.7495V9.07474C49.7503 7.57475 48.5503 6.37476 47.0503 6.37476H36.5504C35.8004 6.37476 35.0504 6.67475 34.5254 7.27475C34.0754 7.79974 33.7754 8.47474 33.7754 9.14974V48.8245L40.0753 62.7744C40.8253 64.1244 42.9253 64.1244 43.5253 62.6244ZM37.6004 10.0497H46.0753V15.1497H37.6004V10.0497ZM38.6504 46.4995H37.6004V18.9747H46.0753V46.4995H36.9255C35.9505 46.4995 37.6004 47.3245 37.6004 48.2995V48.3745C37.6004 49.3317 35.0505 50.1736 37.6755 50.1736C37.8241 50.1742 44.8705 50.1745 45.0253 50.1745L41.8003 57.2994L38.5754 50.1745C39.5503 50.1745 40.3753 49.3495 40.3753 48.3745V48.2995C40.4503 47.2495 39.6254 46.4995 38.6504 46.4995Z" fill="#0271BC"/>
</svg>
