<svg width="85" height="81" viewBox="0 0 85 81" fill="none" xmlns="http://www.w3.org/2000/svg">
<path d="M19.4477 74.9523V76.3518C19.4477 76.6647 19.3861 76.9745 19.2663 77.2635C19.1466 77.5525 18.9712 77.8151 18.7499 78.0363C18.5287 78.2575 18.2661 78.433 17.9771 78.5527C17.6881 78.6725 17.3783 78.7341 17.0654 78.7341H8.75201C8.43916 78.7341 8.12937 78.6725 7.84033 78.5528C7.55128 78.4331 7.28865 78.2576 7.06742 78.0364C6.84619 77.8152 6.67071 77.5525 6.55098 77.2635C6.43125 76.9745 6.36963 76.6647 6.36963 76.3518V74.4192" stroke="#0271BC" stroke-width="2.72194" stroke-linecap="round" stroke-linejoin="round"/>
<path d="M12.1823 45.3122L12.2318 39.4998H5.45538C4.55689 39.4999 3.69526 39.857 3.06 40.4924C2.42474 41.1278 2.06787 41.9895 2.06787 42.888V46.7653H9.27679C9.27679 46.7653 4.91743 53.0764 4.91743 55.484V71.759C4.91743 72.4524 5.19281 73.1175 5.68302 73.608C6.17322 74.0984 6.83814 74.3742 7.53159 74.3746H29.0232" stroke="#0271BC" stroke-width="2.72194" stroke-linecap="round" stroke-linejoin="round"/>
<path d="M12.9272 58.3904L18.0088 64.2029H31.0738V58.3904H12.9272Z" stroke="#0271BC" stroke-width="2.72194" stroke-linecap="round" stroke-linejoin="round"/>
<path d="M18.7324 58.3904L23.8148 64.2029" stroke="#0271BC" stroke-width="2.72194" stroke-linejoin="round"/>
<path d="M42.6977 58.3904H35.4321V67.1091H42.6977V58.3904Z" stroke="#0271BC" stroke-width="2.72194" stroke-linecap="round" stroke-linejoin="round"/>
<path d="M42.7257 24.9685H20.6446C19.4831 24.9685 18.3568 25.3668 17.4536 26.097C16.5504 26.8272 15.9249 27.845 15.6816 28.9807L12.1819 45.3121L9.85473 55.7849C9.78515 56.0979 9.78676 56.4225 9.85943 56.7347C9.9321 57.047 10.074 57.3389 10.2746 57.589C10.4752 57.8391 10.7294 58.0409 11.0184 58.1796C11.3075 58.3182 11.624 58.3902 11.9446 58.3902H42.6974" stroke="#0271BC" stroke-width="2.72194" stroke-linecap="round" stroke-linejoin="round"/>
<path d="M42.6982 77.2807H29.6201V71.4683H42.6982" stroke="#0271BC" stroke-width="2.72194" stroke-linecap="round" stroke-linejoin="round"/>
<path d="M42.7257 42.4059H16.542L19.4482 29.3279H42.7257" stroke="#0271BC" stroke-width="2.72194" stroke-linecap="round" stroke-linejoin="round"/>
<path d="M53.8613 1.71875H78.0906C79.3096 1.71875 80.4787 2.20299 81.3406 3.06495C82.2026 3.92691 82.6868 5.09597 82.6868 6.31496V55.2471C82.6868 56.4661 82.2026 57.6352 81.3406 58.4972C80.4786 59.3592 79.3095 59.8434 78.0905 59.8434H53.8613C52.6424 59.8434 51.4733 59.3592 50.6113 58.4972C49.7494 57.6353 49.2651 56.4662 49.2651 55.2472V6.31496C49.2651 5.09597 49.7494 3.92691 50.6113 3.06495C51.4733 2.20299 52.6424 1.71875 53.8613 1.71875V1.71875Z" stroke="#0271BC" stroke-width="2.72194" stroke-linecap="round" stroke-linejoin="round"/>
<path d="M63.7964 55.4841H69.6089" stroke="#0271BC" stroke-width="2.72194" stroke-linecap="round" stroke-linejoin="round"/>
<path d="M65.976 10.4375C63.5069 10.4022 61.1249 11.349 59.3537 13.0696C57.5825 14.7902 56.5671 17.1438 56.5308 19.6129C56.5308 26.6708 63.7963 35.1405 65.976 35.1405C68.1557 35.1405 75.4213 26.6708 75.4213 19.6129C75.385 17.1438 74.3696 14.7902 72.5984 13.0696C70.8272 11.349 68.4451 10.4022 65.976 10.4375V10.4375ZM65.976 23.5155C65.2575 23.5155 64.5552 23.3025 63.9578 22.9033C63.3603 22.5041 62.8947 21.9368 62.6198 21.2729C62.3448 20.6091 62.2729 19.8787 62.413 19.174C62.5532 18.4693 62.8992 17.822 63.4072 17.314C63.9153 16.8059 64.5626 16.4599 65.2673 16.3197C65.972 16.1796 66.7024 16.2515 67.3662 16.5265C68.03 16.8014 68.5974 17.2671 68.9966 17.8645C69.3958 18.4619 69.6088 19.1642 69.6088 19.8827C69.6088 20.8462 69.2261 21.7702 68.5448 22.4515C67.8635 23.1328 66.9395 23.5155 65.976 23.5155V23.5155Z" stroke="#0271BC" stroke-width="2.72194" stroke-linecap="round" stroke-linejoin="round"/>
<path d="M49.2651 51.1248H82.6868" stroke="#0271BC" stroke-width="2.72194" stroke-linejoin="round"/>
</svg>
