<svg width="85" height="86" viewBox="0 0 85 86" fill="none" xmlns="http://www.w3.org/2000/svg">
<g clip-path="url(#clip0_125_142)">
<path d="M19.9784 57.3314C20.4978 57.8385 21.0976 58.2562 21.7534 58.5673C21.9747 62.9472 22.9165 67.2606 24.5408 71.3341C25.2265 72.9618 25.584 74.7088 25.5927 76.475V81.1294C25.5927 82.1755 26.0082 83.1788 26.748 83.9185C27.4877 84.6583 28.491 85.0738 29.5371 85.0738H45.3148C46.3609 85.0738 47.3642 84.6583 48.1039 83.9185C48.8436 83.1788 49.2592 82.1755 49.2592 81.1294C49.2611 78.877 50.031 76.6926 51.4418 74.9367L60.0275 64.2341C60.1721 64.0764 60.3036 63.9054 60.4351 63.7477C60.5666 63.5899 60.698 63.4715 60.8164 63.3138C60.9347 63.156 61.0662 62.9588 61.1845 62.7747L61.5132 62.3014C61.6316 62.1041 61.7104 61.9069 61.8156 61.7229C61.9208 61.5388 61.9997 61.381 62.0786 61.2101C62.1575 61.0392 62.2495 60.7893 62.3284 60.579L62.5256 60.0662C62.5256 59.8427 62.644 59.6192 62.6965 59.3825C62.7491 59.1458 62.7886 59.0538 62.828 58.8829C62.8675 58.7119 62.828 58.3964 62.9201 58.1597C63.0121 57.9231 62.9201 57.831 62.999 57.6601C63.0778 57.4892 62.999 57.1079 62.999 56.8318C62.999 56.5557 62.999 56.5688 62.999 56.4242C62.9856 56.0101 62.9461 55.5973 62.8806 55.1883L62.7754 54.5571L61.4606 46.0372C61.3137 45.13 61.0485 44.2459 60.6717 43.4076C60.6508 43.3525 60.6244 43.2996 60.5929 43.2498C59.418 40.7661 57.318 38.8407 54.742 37.8854L50.6398 36.4259L55.2021 31.9556L59.7777 27.2223C59.932 27.073 60.1206 26.9638 60.3268 26.9042C60.5331 26.8446 60.7508 26.8365 60.961 26.8804C64.183 27.5614 67.5433 27.0085 70.3772 25.331C73.2111 23.6536 75.3124 20.9737 76.2654 17.8214C76.7849 16.1199 76.9504 14.3301 76.7518 12.5622C76.6957 12.0676 76.5004 11.5991 76.1885 11.2111C75.8767 10.8231 75.4611 10.5317 74.9902 10.3705C74.5192 10.2094 74.0122 10.1853 73.528 10.3009C73.0439 10.4166 72.6025 10.6673 72.2552 11.0239L68.6 14.7579C68.4778 14.8811 68.3324 14.979 68.1722 15.0457C68.0119 15.1125 67.8401 15.1468 67.6665 15.1468C67.493 15.1468 67.3211 15.1125 67.1609 15.0457C67.0007 14.979 66.8552 14.8811 66.733 14.7579L63.0515 11.0896C62.9265 10.9636 62.8282 10.8136 62.7627 10.6487C62.6972 10.4837 62.6657 10.3072 62.6703 10.1298C62.6692 9.95361 62.7036 9.77903 62.7714 9.61641C62.8391 9.45378 62.9389 9.30644 63.0647 9.18312L66.733 5.44906C67.0835 5.09794 67.3275 4.65482 67.4369 4.17089C67.5462 3.68697 67.5164 3.18198 67.351 2.71426C67.1834 2.2562 66.8918 1.85374 66.5087 1.55189C66.1256 1.25005 65.6661 1.0607 65.1815 1.00501C63.4127 0.819791 61.6246 0.989655 59.9223 1.50464C56.7849 2.47068 54.1224 4.57541 52.4583 7.40502C50.7941 10.2346 50.2486 13.5844 50.929 16.7959C50.9782 17.0131 50.9715 17.2392 50.9094 17.4531C50.8473 17.667 50.7319 17.8616 50.574 18.0186L42.9218 25.513C42.3153 24.7143 41.4929 24.1056 40.5518 23.7588C39.6107 23.4121 38.59 23.3416 37.6102 23.5558C36.6304 23.7701 35.7322 24.26 35.0217 24.9678C34.3111 25.6757 33.8178 26.572 33.5998 27.551C32.8175 27.3294 31.9944 27.2923 31.1952 27.4425C30.396 27.5927 29.6426 27.9262 28.9941 28.4167C28.3455 28.9072 27.8196 29.5415 27.4575 30.2696C27.0955 30.9977 26.9072 31.7998 26.9075 32.613C26.9034 33.2373 27.0149 33.8569 27.2362 34.4406H26.9206C26.0987 34.572 25.3198 34.8966 24.6478 35.3877C23.9758 35.8789 23.43 36.5225 23.0552 37.2656C22.6804 38.0088 22.4873 38.8303 22.4919 39.6626C22.4964 40.495 22.6985 41.3143 23.0814 42.0533C21.7776 42.461 20.6836 43.3599 20.0308 44.5598C19.3781 45.7598 19.2178 47.1667 19.584 48.4827C18.5464 49.7389 18.0123 51.3356 18.0852 52.9633C18.1581 54.5909 18.8328 56.1335 19.9784 57.2919V57.3314ZM21.0697 50.9809L21.3064 51.1518C21.433 51.2724 21.5693 51.3823 21.714 51.4805C21.972 51.657 22.2447 51.811 22.5292 51.9407L27.7884 54.2021C28.0223 54.3049 28.2641 54.3885 28.5115 54.452L27.4465 55.5038C27.2794 55.6634 27.0991 55.8085 26.9075 55.9377L26.7234 56.056L26.2895 56.2795L26.0528 56.3847L25.5532 56.5294H25.1719H24.9616C24.4549 56.5583 23.9472 56.496 23.4627 56.3453C22.883 56.1608 22.3556 55.8408 21.9244 55.4118C21.345 54.835 20.9592 54.0926 20.8203 53.287C20.6813 52.4815 20.796 51.6526 21.1486 50.9151L21.0697 50.9809ZM56.4118 41.9481C57.6872 43.1446 58.529 44.731 58.8047 46.4579L60.2904 55.6616C60.3406 55.9705 60.3714 56.2823 60.3825 56.5951C60.4239 57.68 60.2436 58.762 59.8525 59.7748C59.4614 60.7876 58.8677 61.71 58.1079 62.4854L58.0158 62.5775L49.3907 73.2406C47.5917 75.4751 46.6168 78.2608 46.6296 81.1294C46.6296 81.4781 46.4911 81.8126 46.2445 82.0591C45.9979 82.3057 45.6635 82.4442 45.3148 82.4442H29.5371C29.1884 82.4442 28.854 82.3057 28.6074 82.0591C28.3608 81.8126 28.2223 81.4781 28.2223 81.1294V76.475C28.198 74.3568 27.751 72.2648 26.9075 70.3217C25.4919 66.7804 24.6315 63.0417 24.3567 59.2379H24.5803C24.8535 59.2311 25.126 59.2048 25.3954 59.159C25.5049 59.1655 25.6147 59.1655 25.7241 59.159C26.0375 59.102 26.3454 59.0184 26.6445 58.9092L26.9732 58.8171C27.3047 58.6788 27.6255 58.5162 27.933 58.3306L28.1434 58.2255C28.5157 57.9837 28.8636 57.7063 29.1821 57.3971L36.5582 50.1525C37.4072 49.9216 38.1789 49.4676 38.7933 48.8377L38.8722 48.772C39.0653 48.5734 39.2453 48.3626 39.4113 48.1409C39.8402 47.5542 40.1363 46.8812 40.2791 46.1687C40.6898 46.1756 41.1 46.1359 41.5018 46.0503C42.4557 46.984 43.6055 47.6936 44.8678 48.1277L47.997 49.3242C48.3463 49.4464 48.6546 49.6638 48.8869 49.9519C49.1192 50.24 49.2664 50.5873 49.3118 50.9546C49.3608 51.4053 49.2581 51.8594 49.0199 52.2452C48.7818 52.631 48.4218 52.9263 47.997 53.0846C40.9496 55.7142 36.9658 60.2371 36.1637 66.4825C36.1107 66.8258 36.1957 67.1761 36.4002 67.457C36.6047 67.7378 36.912 67.9263 37.255 67.9813H37.4259C37.747 67.9841 38.0579 67.8692 38.3001 67.6585C38.5423 67.4478 38.699 67.1558 38.7407 66.8375C39.4507 61.5782 42.7772 57.8705 48.9174 55.5695C49.8874 55.1948 50.7055 54.5086 51.2433 53.6186C51.7812 52.7286 52.0082 51.6852 51.8888 50.6522C51.7835 49.8297 51.4578 49.051 50.9464 48.3983C50.4349 47.7456 49.7566 47.2433 48.9831 46.9444L45.8144 45.6296C44.6725 45.2317 43.6625 44.5265 42.8955 43.5916C42.7274 43.3908 42.5778 43.1752 42.4485 42.9474C42.3696 42.8291 42.2907 42.7107 42.225 42.5924C42.0838 42.3475 41.9608 42.0926 41.8568 41.8298C41.7911 41.6589 41.7254 41.488 41.6728 41.3039C41.6202 41.1198 41.5807 40.9752 41.5413 40.8174C41.5018 40.6596 41.4755 40.423 41.4492 40.2257C41.4363 40.0551 41.4363 39.8836 41.4492 39.713C41.4426 39.6606 41.4426 39.6076 41.4492 39.5552C41.4295 39.3145 41.4295 39.0727 41.4492 38.832C41.4428 38.7445 41.4428 38.6566 41.4492 38.5691C41.442 38.4991 41.442 38.4286 41.4492 38.3587C41.5012 37.9928 41.5848 37.632 41.6991 37.2806C41.8101 36.9549 42.0445 36.6858 42.3517 36.5309C42.659 36.376 43.0147 36.3478 43.3426 36.4522L53.7559 40.3704C54.7343 40.7207 55.6361 41.2564 56.4118 41.9481ZM52.3753 19.8331C52.8363 19.3698 53.1749 18.7993 53.3608 18.1728C53.5467 17.5462 53.574 16.8833 53.4403 16.2436C53.0942 14.6583 53.1303 13.0133 53.5455 11.4446C53.9863 9.7041 54.8691 8.10693 56.1083 6.80776C57.3476 5.5086 58.9014 4.55147 60.6192 4.02907C61.9912 3.59987 63.4384 3.46546 64.866 3.63463L61.1977 7.36868C60.8299 7.73514 60.5382 8.17057 60.3391 8.65002C60.14 9.12947 60.0375 9.64351 60.0375 10.1627C60.0375 10.6818 60.14 11.1958 60.3391 11.6753C60.5382 12.1547 60.8299 12.5902 61.1977 12.9566L64.9186 16.7038C65.6717 17.4216 66.6722 17.822 67.7125 17.822C68.7529 17.822 69.7534 17.4216 70.5065 16.7038L74.2406 12.904C74.395 14.3179 74.2653 15.7483 73.8593 17.1114C73.3422 18.8544 72.3766 20.4311 71.0591 21.684C69.7417 22.9368 68.1185 23.8219 66.3517 24.2508C64.7706 24.6729 63.1112 24.709 61.5132 24.356C60.8715 24.22 60.206 24.2461 59.577 24.4321C58.948 24.618 58.3752 24.9579 57.9106 25.421L48.5755 34.6247V34.5458C48.46 34.2007 48.3056 33.8699 48.1153 33.5597L44.3944 27.7614L52.3753 19.8331ZM37.3339 26.4071C37.6257 26.2223 37.951 26.0968 38.2913 26.0378C38.6316 25.9787 38.9802 25.9873 39.3172 26.063C39.6542 26.1387 39.9729 26.28 40.2553 26.479C40.5377 26.6779 40.7781 26.9305 40.9628 27.2223L41.607 28.2347L45.5515 34.4669L44.2366 33.9804C43.7472 33.8097 43.2284 33.7392 42.7112 33.7731C42.1939 33.807 41.6887 33.9446 41.2257 34.1776C41.0985 34.2444 40.9755 34.319 40.8576 34.4011L36.19 29.2076C36.075 28.6838 36.1229 28.1372 36.3274 27.6413C36.5318 27.1455 36.8831 26.724 37.3339 26.4334V26.4071ZM30.3128 30.7328C30.5575 30.4844 30.8492 30.2871 31.1708 30.1524C31.4925 30.0177 31.8377 29.9483 32.1864 29.9483C32.5351 29.9483 32.8804 30.0177 33.202 30.1524C33.5237 30.2871 33.8153 30.4844 34.06 30.7328L39.2141 36.4785C39.1483 36.6889 39.0957 36.8993 39.03 37.1228C38.5152 39.1556 38.71 41.3033 39.5822 43.2104L32.4165 36.518L30.3128 34.4143C29.8231 33.9216 29.5482 33.2551 29.5482 32.5604C29.5482 31.8657 29.8231 31.1992 30.3128 30.7065V30.7328ZM25.5927 38.1352C26.001 37.5708 26.6167 37.1915 27.3044 37.0805C27.9922 36.9696 28.6959 37.1361 29.261 37.5435L30.5758 38.5428L37.7415 45.2089C37.7013 45.6831 37.5332 46.1375 37.255 46.5237C37.169 46.642 37.0722 46.752 36.9658 46.8524C36.5958 47.1825 36.14 47.4013 35.6509 47.4835C35.177 47.5797 34.6856 47.5433 34.231 47.3783L27.1178 42.382L26.1317 41.6589C25.6158 41.2466 25.2739 40.6552 25.174 40.0023C25.0741 39.3495 25.2236 38.6829 25.5927 38.1352ZM22.1873 46.024C22.3926 45.5537 22.731 45.1536 23.1609 44.8733C23.5908 44.5929 24.0933 44.4445 24.6066 44.4463C24.9679 44.4434 25.326 44.515 25.6584 44.6566H25.7636L32.4165 49.3242C32.4183 49.6714 32.3512 50.0155 32.2193 50.3366C32.1045 50.6643 31.924 50.9651 31.6889 51.2206C31.4537 51.476 31.1689 51.6808 30.8519 51.8223C30.2078 52.089 29.4843 52.089 28.8402 51.8223L23.581 49.5477C23.4278 49.4803 23.2823 49.3965 23.1471 49.2979C22.8138 49.0323 22.5442 48.6953 22.3582 48.3118L22.2793 48.1672C22.1241 47.84 22.0381 47.4842 22.0268 47.1222C22.0155 46.7602 22.0791 46.3998 22.2136 46.0635L22.1873 46.024Z" fill="#0271BC"/>
<path d="M34.2046 16.4145C34.1311 16.5719 34.1215 16.7517 34.1779 16.916C34.2343 17.0804 34.3523 17.2164 34.507 17.2954L37.1366 18.6102C37.2274 18.6523 37.3259 18.6747 37.4259 18.676C37.5749 18.6766 37.7198 18.6265 37.8366 18.534C37.9535 18.4415 38.0354 18.3121 38.0691 18.1669C38.1027 18.0217 38.086 17.8694 38.0217 17.7349C37.9574 17.6005 37.8493 17.4919 37.7152 17.4269L35.0855 16.1121C34.9281 16.0386 34.7483 16.029 34.584 16.0854C34.4197 16.1418 34.2837 16.2598 34.2046 16.4145Z" fill="#0271BC"/>
<path d="M38.7409 14.7313C38.8271 14.7323 38.9126 14.7153 38.9918 14.6814C39.0711 14.6474 39.1423 14.5972 39.201 14.5341C39.2639 14.475 39.3141 14.4037 39.3483 14.3246C39.3826 14.2454 39.4003 14.1601 39.4003 14.0739C39.4003 13.9876 39.3826 13.9023 39.3483 13.8231C39.3141 13.744 39.2639 13.6727 39.201 13.6137L36.5714 10.9841C36.4494 10.862 36.2838 10.7935 36.1112 10.7935C35.9386 10.7935 35.7731 10.862 35.6511 10.9841C35.529 11.1061 35.4604 11.2717 35.4604 11.4443C35.4604 11.6169 35.529 11.7824 35.6511 11.9044L38.2807 14.5341C38.3394 14.5972 38.4106 14.6474 38.4899 14.6814C38.5692 14.7153 38.6546 14.7323 38.7409 14.7313Z" fill="#0271BC"/>
<path d="M43.3426 14.074V12.7592C43.3426 12.5849 43.2734 12.4176 43.1501 12.2944C43.0268 12.1711 42.8596 12.1018 42.6852 12.1018C42.5109 12.1018 42.3437 12.1711 42.2204 12.2944C42.0971 12.4176 42.0278 12.5849 42.0278 12.7592V14.074C42.0278 14.2484 42.0971 14.4156 42.2204 14.5389C42.3437 14.6622 42.5109 14.7314 42.6852 14.7314C42.8596 14.7314 43.0268 14.6622 43.1501 14.5389C43.2734 14.4156 43.3426 14.2484 43.3426 14.074Z" fill="#0271BC"/>
</g>
<defs>
<clipPath id="clip0_125_142">
<rect width="84.1477" height="84.1477" fill="white" transform="translate(0.611328 0.925781)"/>
</clipPath>
</defs>
</svg>
