<svg width="83" height="82" viewBox="0 0 83 82" fill="none" xmlns="http://www.w3.org/2000/svg">
<path d="M79.937 3.84375H3.06249C2.72269 3.84375 2.3968 3.97874 2.15652 4.21902C1.91624 4.4593 1.78125 4.78519 1.78125 5.12499V64.0621C1.78125 64.4019 1.91624 64.7278 2.15652 64.9681C2.3968 65.2084 2.72269 65.3434 3.06249 65.3434H51.1514C51.3355 65.62 51.5357 65.8907 51.7497 66.1577V76.8746C51.7495 77.0777 51.7976 77.2779 51.8901 77.4587C51.9826 77.6395 52.1168 77.7957 52.2816 77.9144C52.4464 78.0331 52.637 78.1109 52.8378 78.1413C53.0386 78.1717 53.2438 78.154 53.4363 78.0894L60.7184 75.6621L68.0005 78.0894C68.131 78.1337 68.268 78.1561 68.4059 78.1558C68.5742 78.156 68.7408 78.123 68.8964 78.0586C69.0519 77.9943 69.1932 77.8999 69.3122 77.7809C69.4312 77.6619 69.5256 77.5206 69.5899 77.3651C69.6542 77.2095 69.6873 77.0429 69.6871 76.8746V66.1584C69.9021 65.89 70.1021 65.6195 70.2857 65.3434H79.937C80.2768 65.3434 80.6027 65.2084 80.843 64.9681C81.0833 64.7278 81.2183 64.4019 81.2183 64.0621V5.12499C81.2183 4.78519 81.0833 4.4593 80.843 4.21902C80.6027 3.97874 80.2768 3.84375 79.937 3.84375ZM51.612 51.8611C51.4814 52.0287 51.3587 52.2027 51.2375 52.3779C51.1849 52.4536 51.1297 52.5267 51.079 52.6037C50.9452 52.8071 50.8208 53.0172 50.6996 53.2296C50.6685 53.2842 50.6341 53.3362 50.6039 53.3913C50.3038 53.9371 50.0485 54.5063 49.8406 55.0934H18.3311C18.0621 53.5205 17.3117 52.0697 16.1833 50.9413C15.0549 49.8129 13.6042 49.0625 12.0312 48.7936V20.3936C13.6042 20.1246 15.0549 19.3742 16.1833 18.2458C17.3117 17.1174 18.0621 15.6667 18.3311 14.0937H64.6685C64.9374 15.6667 65.6878 17.1174 66.8162 18.2458C67.9446 19.3742 69.3954 20.1246 70.9683 20.3936V48.7936C69.9004 48.9723 68.8828 49.3762 67.983 49.9785L67.9779 49.9746L67.9381 49.9452C67.6721 49.7316 67.3982 49.5316 67.1165 49.345C67.0245 49.2837 66.9287 49.2297 66.8347 49.1712C66.6285 49.042 66.4211 48.9158 66.208 48.8004C66.0927 48.738 65.9755 48.6819 65.8586 48.6236C65.6599 48.5244 65.4599 48.4289 65.2564 48.3417C65.1304 48.2876 65.0031 48.2375 64.8751 48.1879C64.6733 48.1099 64.4695 48.0377 64.2637 47.9713C64.1321 47.9287 64.0004 47.8871 63.8673 47.8493C63.656 47.7896 63.4427 47.7385 63.228 47.6907C63.0975 47.6617 62.9681 47.6306 62.8364 47.6061C62.6008 47.5623 62.3624 47.5304 62.1235 47.5013C62.0109 47.4876 61.8996 47.4685 61.7864 47.458C61.4329 47.4253 61.0771 47.406 60.7184 47.406C60.3995 47.406 60.0834 47.4203 59.7703 47.446C59.6659 47.4544 59.564 47.4716 59.4603 47.4826C59.2525 47.5054 59.0446 47.5276 58.8398 47.5613C58.7174 47.5814 58.5976 47.6096 58.4764 47.6335C58.2939 47.6697 58.1115 47.7048 57.932 47.7489C57.8049 47.7804 57.6806 47.8191 57.5551 47.8547C57.3847 47.9032 57.2146 47.9515 57.0473 48.0077C56.9214 48.0499 56.7983 48.0973 56.6745 48.1441C56.5121 48.205 56.3503 48.2663 56.1911 48.3342C56.0689 48.3864 55.9492 48.4428 55.8292 48.4991C55.673 48.5723 55.518 48.647 55.3654 48.7269C55.249 48.7879 55.1347 48.852 55.0206 48.917C54.8699 49.0025 54.7212 49.0906 54.5747 49.1827C54.465 49.2517 54.3569 49.3227 54.2498 49.3954C54.1046 49.4937 53.962 49.5952 53.822 49.6999C53.7204 49.7758 53.6197 49.8525 53.5206 49.9316C53.3803 50.0436 53.2439 50.1595 53.109 50.2775C53.0171 50.3582 52.9254 50.4387 52.8361 50.5222C52.7003 50.6492 52.5693 50.7812 52.4397 50.9148C52.3588 50.9982 52.2769 51.0805 52.1985 51.1664C52.0663 51.3111 51.9402 51.4611 51.8153 51.6131C51.7471 51.6964 51.6776 51.7768 51.612 51.8611ZM67.1246 75.0966L61.1238 73.0978C60.8608 73.0094 60.576 73.0094 60.313 73.0978L54.3122 75.0966V68.5252C54.3763 68.5678 54.447 68.597 54.5114 68.6382C54.8577 68.86 55.2157 69.0631 55.5838 69.2464C55.6759 69.2923 55.7641 69.3444 55.8575 69.3874C56.3115 69.598 56.7788 69.7788 57.2564 69.9286C57.3691 69.9641 57.4843 69.9897 57.5981 70.0218C57.9828 70.13 58.3728 70.2181 58.7667 70.2858C58.9076 70.31 59.0471 70.3351 59.1895 70.3541C60.2033 70.5058 61.2339 70.5058 62.2477 70.3541C62.39 70.335 62.5296 70.3099 62.6705 70.2856C63.0634 70.2181 63.4526 70.1301 63.8364 70.0222C63.9517 69.9899 64.0671 69.9641 64.1811 69.9283C64.6578 69.7787 65.1243 69.5981 65.5776 69.3879C65.673 69.3437 65.7632 69.2903 65.8571 69.2435C66.2225 69.0612 66.578 68.8596 66.9219 68.6395C66.9874 68.5976 67.0597 68.568 67.1244 68.5242L67.1246 75.0966ZM68.4684 63.4315C68.1766 63.9444 67.8331 64.4261 67.4434 64.8692C66.6031 65.8247 65.5688 66.5901 64.4095 67.1146C63.2501 67.639 61.9923 67.9104 60.7199 67.9106C59.4475 67.9108 58.1896 67.6399 57.0301 67.1159C55.8706 66.5919 54.836 65.8268 53.9953 64.8716C52.5608 63.2259 51.764 61.1203 51.7497 58.9372C51.751 58.1811 51.8452 57.4281 52.03 56.695C52.5271 54.769 53.6505 53.0629 55.2233 51.8452C56.7962 50.6275 58.7293 49.9673 60.7184 49.9685C61.0141 49.9685 61.3077 49.9827 61.5991 50.0113C63.3467 50.1826 65.0055 50.8634 66.3694 51.9694C66.5968 52.1532 66.8164 52.3487 67.0283 52.5559C67.8732 53.3896 68.5435 54.3833 69 55.4789C69.4565 56.5746 69.6901 57.7502 69.6871 58.9372C69.6937 60.5178 69.2726 62.0708 68.4684 63.4315ZM78.6558 62.7809H71.5877C71.6751 62.5348 71.7478 62.2835 71.8183 62.0318C71.8311 61.9874 71.847 61.9445 71.8589 61.8999C71.9708 61.4717 72.0579 61.0373 72.1198 60.5991C72.1352 60.4943 72.1481 60.3897 72.1605 60.2844C72.3485 58.7985 72.239 57.2901 71.8384 55.8469C71.4379 54.4037 70.7543 53.0546 69.8274 51.8782C70.5698 51.4702 71.4024 51.2542 72.2496 51.2497C72.5894 51.2497 72.9153 51.1147 73.1556 50.8745C73.3958 50.6342 73.5308 50.3083 73.5308 49.9685V19.2187C73.5308 18.8789 73.3958 18.553 73.1556 18.3127C72.9153 18.0724 72.5894 17.9374 72.2496 17.9374C70.8908 17.9361 69.588 17.3957 68.6271 16.4349C67.6663 15.4741 67.1259 14.1713 67.1246 12.8124C67.1246 12.4726 66.9896 12.1468 66.7493 11.9065C66.5091 11.6662 66.1832 11.5312 65.8434 11.5312H17.1562C16.8164 11.5312 16.4905 11.6662 16.2502 11.9065C16.0099 12.1468 15.8749 12.4726 15.8749 12.8124C15.8736 14.1713 15.3332 15.4741 14.3724 16.4349C13.4116 17.3957 12.1088 17.9361 10.7499 17.9374C10.4101 17.9374 10.0843 18.0724 9.84397 18.3127C9.60369 18.553 9.4687 18.8789 9.4687 19.2187V49.9685C9.4687 50.3083 9.60369 50.6342 9.84397 50.8745C10.0843 51.1147 10.4101 51.2497 10.7499 51.2497C12.1088 51.251 13.4116 51.7914 14.3724 52.7523C15.3332 53.7131 15.8736 55.0159 15.8749 56.3747C15.8749 56.7145 16.0099 57.0404 16.2502 57.2807C16.4905 57.5209 16.8164 57.6559 17.1562 57.6559H49.2673C49.2171 58.0812 49.1903 58.5089 49.1872 58.9372C49.1904 59.3867 49.2201 59.8356 49.276 60.2816C49.2888 60.389 49.3016 60.4953 49.3174 60.6019C49.3787 61.0363 49.4649 61.4668 49.5754 61.8913C49.5899 61.9459 49.6098 61.9984 49.625 62.0528C49.694 62.2972 49.7642 62.5414 49.8491 62.7808H4.34373V6.40623H78.6558V62.7809Z" fill="#0271BC"/>
<path d="M31.25 28.1874H51.7499C52.0897 28.1874 52.4156 28.0525 52.6558 27.8122C52.8961 27.5719 53.0311 27.246 53.0311 26.9062V19.2187C53.0311 18.8789 52.8961 18.553 52.6558 18.3128C52.4156 18.0725 52.0897 17.9375 51.7499 17.9375H31.25C30.9102 17.9375 30.5843 18.0725 30.344 18.3128C30.1037 18.553 29.9688 18.8789 29.9688 19.2187V26.9062C29.9688 27.246 30.1037 27.5719 30.344 27.8122C30.5843 28.0525 30.9102 28.1874 31.25 28.1874ZM32.5312 20.5H50.4686V25.625H32.5312V20.5Z" fill="#0271BC"/>
<path d="M28.6875 35.8747H54.3123C54.6521 35.8747 54.978 35.7398 55.2183 35.4995C55.4586 35.2592 55.5936 34.9333 55.5936 34.5935C55.5936 34.2537 55.4586 33.9278 55.2183 33.6875C54.978 33.4472 54.6521 33.3123 54.3123 33.3123H28.6875C28.3477 33.3123 28.0218 33.4472 27.7815 33.6875C27.5412 33.9278 27.4062 34.2537 27.4062 34.5935C27.4062 34.9333 27.5412 35.2592 27.7815 35.4995C28.0218 35.7398 28.3477 35.8747 28.6875 35.8747Z" fill="#0271BC"/>
<path d="M59.4373 42.281C59.4373 41.9412 59.3023 41.6153 59.062 41.375C58.8217 41.1347 58.4958 40.9998 58.156 40.9998H24.8437C24.5039 40.9998 24.178 41.1347 23.9378 41.375C23.6975 41.6153 23.5625 41.9412 23.5625 42.281C23.5625 42.6208 23.6975 42.9467 23.9378 43.187C24.178 43.4273 24.5039 43.5622 24.8437 43.5622H58.156C58.4958 43.5622 58.8217 43.4273 59.062 43.187C59.3023 42.9467 59.4373 42.6208 59.4373 42.281Z" fill="#0271BC"/>
</svg>
