<svg width="683" height="90" viewBox="0 0 683 90" fill="none" xmlns="http://www.w3.org/2000/svg">
<path d="M67.6933 71.4243L68.6204 71.0494L68.3676 70.4243H67.6933V71.4243ZM31.6168 71.4243V70.4243H30.9426L30.6898 71.0494L31.6168 71.4243ZM24.9134 88V89H25.5877L25.8405 88.3749L24.9134 88ZM0.29368 88L-0.621153 87.5962L-1.24084 89H0.29368V88ZM37.9546 2.684V1.684H37.3029L37.0398 2.28016L37.9546 2.684ZM61.7212 2.684L62.6355 2.27907L62.372 1.684H61.7212V2.684ZM99.504 88V89H101.041L100.418 87.5951L99.504 88ZM74.3967 88L73.4697 88.3749L73.7225 89H74.3967V88ZM60.6243 53.6298V54.6298H62.1038L61.5522 53.257L60.6243 53.6298ZM49.6551 26.3287L50.583 25.9559L49.6551 23.6464L48.7272 25.9559L49.6551 26.3287ZM38.6859 53.6298L37.758 53.257L37.2064 54.6298H38.6859V53.6298ZM67.6933 70.4243H31.6168V72.4243H67.6933V70.4243ZM30.6898 71.0494L23.9864 87.6251L25.8405 88.3749L32.5439 71.7992L30.6898 71.0494ZM24.9134 87H0.29368V89H24.9134V87ZM1.20851 88.4038L38.8694 3.08783L37.0398 2.28016L-0.621153 87.5962L1.20851 88.4038ZM37.9546 3.684H61.7212V1.684H37.9546V3.684ZM60.8069 3.08892L98.5897 88.4049L100.418 87.5951L62.6355 2.27907L60.8069 3.08892ZM99.504 87H74.3967V89H99.504V87ZM75.3238 87.6251L68.6204 71.0494L66.7663 71.7992L73.4697 88.3749L75.3238 87.6251ZM61.5522 53.257L50.583 25.9559L48.7272 26.7015L59.6964 54.0027L61.5522 53.257ZM48.7272 25.9559L37.758 53.257L39.6138 54.0027L50.583 26.7015L48.7272 25.9559ZM38.6859 54.6298H60.6243V52.6298H38.6859V54.6298ZM173.136 43.5138L172.681 42.6234L170.601 43.6862L172.805 44.4577L173.136 43.5138ZM184.592 51.5579L183.795 52.1607L183.801 52.1693L184.592 51.5579ZM179.717 81.906L180.277 82.7346H180.277L179.717 81.906ZM107.564 88H106.564V89H107.564V88ZM107.564 2.684V1.684H106.564V2.684H107.564ZM176.061 8.778L175.48 9.59177L175.487 9.59723L176.061 8.778ZM181.545 35.9572L180.697 35.4272L180.694 35.4331L181.545 35.9572ZM131.453 20.1128V19.1128H130.453V20.1128H131.453ZM131.453 36.5666H130.453V37.5666H131.453V36.5666ZM131.453 53.2642V52.2642H130.453V53.2642H131.453ZM131.453 70.5712H130.453V71.5712H131.453V70.5712ZM172.805 44.4577C177.519 46.1074 181.165 48.681 183.795 52.1607L185.39 50.955C182.494 47.1219 178.503 44.3328 173.466 42.5699L172.805 44.4577ZM183.801 52.1693C186.411 55.5464 187.736 59.6705 187.736 64.599H189.736C189.736 59.2897 188.299 54.7197 185.384 50.9464L183.801 52.1693ZM187.736 64.599C187.736 71.7542 184.885 77.2073 179.157 81.0774L180.277 82.7346C186.575 78.4793 189.736 72.3945 189.736 64.599H187.736ZM179.157 81.0774C173.379 84.9815 164.915 87 153.635 87V89C165.105 89 174.03 86.9559 180.277 82.7346L179.157 81.0774ZM153.635 87H107.564V89H153.635V87ZM108.564 88V2.684H106.564V88H108.564ZM107.564 3.684H151.197V1.684H107.564V3.684ZM151.197 3.684C161.985 3.684 170.032 5.70076 175.48 9.59173L176.642 7.96426C170.714 3.7299 162.185 1.684 151.197 1.684V3.684ZM175.487 9.59723C180.913 13.3954 183.592 18.4957 183.592 24.988H185.592C185.592 17.8298 182.584 12.1235 176.634 7.95877L175.487 9.59723ZM183.592 24.988C183.592 28.875 182.623 32.3457 180.697 35.4272L182.393 36.4872C184.53 33.0685 185.592 29.2264 185.592 24.988H183.592ZM180.694 35.4331C178.85 38.43 176.191 40.8291 172.681 42.6234L173.591 44.4042C177.393 42.4609 180.341 39.8223 182.397 36.4813L180.694 35.4331ZM130.453 20.1128V36.5666H132.453V20.1128H130.453ZM131.453 37.5666H148.028V35.5666H131.453V37.5666ZM148.028 37.5666C152.173 37.5666 155.458 36.8677 157.732 35.3216C160.074 33.7286 161.216 31.3243 161.216 28.2788H159.216C159.216 30.7585 158.327 32.4982 156.607 33.6678C154.818 34.8843 152.009 35.5666 148.028 35.5666V37.5666ZM161.216 28.2788C161.216 25.2676 160.069 22.8936 157.726 21.3236C155.454 19.801 152.171 19.1128 148.028 19.1128V21.1128C152.011 21.1128 154.823 21.7856 156.613 22.9851C158.332 24.137 159.216 25.846 159.216 28.2788H161.216ZM148.028 19.1128H131.453V21.1128H148.028V19.1128ZM151.685 71.5712C155.993 71.5712 159.4 70.8416 161.755 69.2337C164.179 67.579 165.36 65.0834 165.36 61.9177H163.36C163.36 64.5209 162.429 66.3521 160.628 67.5819C158.758 68.8585 155.827 69.5712 151.685 69.5712V71.5712ZM165.36 61.9177C165.36 58.7519 164.179 56.2564 161.755 54.6017C159.4 52.9938 155.993 52.2642 151.685 52.2642V54.2642C155.827 54.2642 158.758 54.9769 160.628 56.2535C162.429 57.4833 163.36 59.3145 163.36 61.9177H165.36ZM151.685 52.2642H131.453V54.2642H151.685V52.2642ZM130.453 53.2642V70.5712H132.453V53.2642H130.453ZM131.453 71.5712H151.685V69.5712H131.453V71.5712ZM221.102 83.978L220.631 84.86L220.635 84.8622L221.102 83.978ZM204.161 68.1336L203.304 68.6496L203.309 68.6571L204.161 68.1336ZM204.161 22.5504L203.309 22.0269L203.304 22.0344L204.161 22.5504ZM221.102 6.70604L220.635 5.82175L220.631 5.82396L221.102 6.70604ZM269.732 6.70604L269.261 7.58812L269.265 7.59031L269.732 6.70604ZM286.674 22.5504L285.817 23.0665L285.822 23.074L286.674 22.5504ZM286.674 68.1336L285.822 67.61L285.817 67.6175L286.674 68.1336ZM269.732 83.978L269.265 83.0937L269.261 83.0959L269.732 83.978ZM257.179 66.671L257.681 67.5355L257.179 66.671ZM265.466 58.1394L266.341 58.6251L266.345 58.6169L265.466 58.1394ZM265.466 32.6665L264.588 33.144L264.592 33.1521L265.466 32.6665ZM257.179 24.013L257.681 23.1485L257.179 24.013ZM233.778 24.013L233.275 23.1485L233.778 24.013ZM225.49 32.6665L226.364 33.1521L226.368 33.144L225.49 32.6665ZM225.49 58.1394L224.611 58.6169L224.616 58.625L225.49 58.1394ZM233.778 66.671L234.28 65.8065V65.8065L233.778 66.671ZM245.478 88.7063C236.605 88.7063 228.642 86.829 221.569 83.0937L220.635 84.8622C228.025 88.7647 236.313 90.7063 245.478 90.7063V88.7063ZM221.573 83.0959C214.576 79.3585 209.062 74.1991 205.013 67.61L203.309 68.6571C207.548 75.5561 213.328 80.9596 220.631 84.86L221.573 83.0959ZM205.017 67.6175C201.055 61.0407 199.067 53.6243 199.067 45.342H197.067C197.067 53.9604 199.141 61.7383 203.304 68.6496L205.017 67.6175ZM199.067 45.342C199.067 37.0597 201.055 29.6433 205.017 23.0665L203.304 22.0344C199.141 28.9457 197.067 36.7236 197.067 45.342H199.067ZM205.013 23.074C209.062 16.4849 214.576 11.3255 221.573 7.58811L220.631 5.82396C213.328 9.72436 207.548 15.1279 203.309 22.0269L205.013 23.074ZM221.569 7.59031C228.642 3.85499 236.605 1.97768 245.478 1.97768V-0.0223236C236.313 -0.0223236 228.025 1.91927 220.635 5.82176L221.569 7.59031ZM245.478 1.97768C254.352 1.97768 262.272 3.85504 269.261 7.58811L270.203 5.82396C262.892 1.91922 254.643 -0.0223236 245.478 -0.0223236V1.97768ZM269.265 7.59031C276.342 11.3277 281.852 16.4846 285.817 23.0665L287.53 22.0344C283.37 15.1283 277.585 9.72223 270.199 5.82176L269.265 7.59031ZM285.822 23.074C289.862 29.6498 291.889 37.0635 291.889 45.342H293.889C293.889 36.7198 291.773 28.9391 287.526 22.0269L285.822 23.074ZM291.889 45.342C291.889 53.6205 289.862 61.0342 285.822 67.61L287.526 68.6571C291.773 61.7449 293.889 53.9642 293.889 45.342H291.889ZM285.817 67.6175C281.852 74.1994 276.342 79.3563 269.265 83.0937L270.199 84.8622C277.585 80.9618 283.37 75.5557 287.53 68.6496L285.817 67.6175ZM269.261 83.0959C262.272 86.829 254.352 88.7063 245.478 88.7063V90.7063C254.643 90.7063 262.892 88.7648 270.203 84.86L269.261 83.0959ZM245.478 70.718C249.949 70.718 254.025 69.6614 257.681 67.5355L256.676 65.8065C253.345 67.7432 249.62 68.718 245.478 68.718V70.718ZM257.681 67.5355C261.336 65.4104 264.225 62.4331 266.341 58.625L264.592 57.6538C262.645 61.1585 260.009 63.8689 256.676 65.8065L257.681 67.5355ZM266.345 58.6169C268.466 54.7149 269.513 50.2813 269.513 45.342H267.513C267.513 49.9906 266.53 54.0886 264.588 57.6619L266.345 58.6169ZM269.513 45.342C269.513 40.4032 268.466 36.0063 266.341 32.1808L264.592 33.1521C266.53 36.6395 267.513 40.6929 267.513 45.342H269.513ZM266.345 32.189C264.231 28.2991 261.342 25.2769 257.681 23.1485L256.676 24.8775C260.003 26.8118 262.639 29.5585 264.588 33.144L266.345 32.189ZM257.681 23.1485C254.025 21.0226 249.949 19.966 245.478 19.966V21.966C249.62 21.966 253.345 22.9408 256.676 24.8775L257.681 23.1485ZM245.478 19.966C241.007 19.966 236.932 21.0226 233.275 23.1485L234.28 24.8775C237.611 22.9408 241.336 21.966 245.478 21.966V19.966ZM233.275 23.1485C229.614 25.2769 226.725 28.2991 224.611 32.189L226.368 33.144C228.317 29.5585 230.953 26.8118 234.28 24.8775L233.275 23.1485ZM224.616 32.1808C222.49 36.0063 221.443 40.4032 221.443 45.342H223.443C223.443 40.6929 224.427 36.6395 226.364 33.1521L224.616 32.1808ZM221.443 45.342C221.443 50.2813 222.491 54.7149 224.611 58.6169L226.368 57.6619C224.426 54.0886 223.443 49.9906 223.443 45.342H221.443ZM224.616 58.625C226.731 62.4331 229.62 65.4104 233.275 67.5355L234.28 65.8065C230.948 63.8689 228.311 61.1585 226.364 57.6538L224.616 58.625ZM233.275 67.5355C236.932 69.6614 241.007 70.718 245.478 70.718V68.718C241.336 68.718 237.611 67.7432 234.28 65.8065L233.275 67.5355ZM316.498 79.3465L315.795 80.0578L315.799 80.0618L316.498 79.3465ZM306.016 2.684V1.684H305.016V2.684H306.016ZM330.149 2.684H331.149V1.684H330.149V2.684ZM362.447 2.684V1.684H361.447V2.684H362.447ZM386.213 2.684H387.213V1.684H386.213V2.684ZM375.61 79.3465L374.911 78.6312L374.907 78.6353L375.61 79.3465ZM346.115 88.7063C333.624 88.7063 324.03 85.3077 317.197 78.6312L315.799 80.0618C323.104 87.1984 333.255 90.7063 346.115 90.7063V88.7063ZM317.201 78.6353C310.454 71.9669 307.016 62.4629 307.016 49.9734H305.016C305.016 62.835 308.566 72.9131 315.795 80.0577L317.201 78.6353ZM307.016 49.9734V2.684H305.016V49.9734H307.016ZM306.016 3.684H330.149V1.684H306.016V3.684ZM329.149 2.684V49.2422H331.149V2.684H329.149ZM329.149 49.2422C329.149 56.1725 330.516 61.5549 333.417 65.2197C336.354 68.9291 340.731 70.718 346.359 70.718V68.718C341.18 68.718 337.452 67.0942 334.985 63.9783C332.483 60.8179 331.149 55.9624 331.149 49.2422H329.149ZM346.359 70.718C351.948 70.718 356.296 68.9273 359.211 65.2169C362.09 61.5523 363.447 56.1712 363.447 49.2422H361.447C361.447 55.9637 360.122 60.8204 357.638 63.9812C355.191 67.0961 351.494 68.718 346.359 68.718V70.718ZM363.447 49.2422V2.684H361.447V49.2422H363.447ZM362.447 3.684H386.213V1.684H362.447V3.684ZM385.213 2.684V49.9734H387.213V2.684H385.213ZM385.213 49.9734C385.213 62.4597 381.737 71.9622 374.911 78.6312L376.309 80.0618C383.621 72.9177 387.213 62.8382 387.213 49.9734H385.213ZM374.907 78.6353C368.156 85.3075 358.607 88.7063 346.115 88.7063V90.7063C358.974 90.7063 369.088 87.1986 376.313 80.0577L374.907 78.6353ZM420.631 21.8192H421.631V20.8192H420.631V21.8192ZM394.427 21.8192H393.427V22.8192H394.427V21.8192ZM394.427 2.684V1.684H393.427V2.684H394.427ZM470.846 2.684H471.846V1.684H470.846V2.684ZM470.846 21.8192V22.8192H471.846V21.8192H470.846ZM444.763 21.8192V20.8192H443.763V21.8192H444.763ZM444.763 88V89H445.763V88H444.763ZM420.631 88H419.631V89H420.631V88ZM420.631 20.8192H394.427V22.8192H420.631V20.8192ZM395.427 21.8192V2.684H393.427V21.8192H395.427ZM394.427 3.684H470.846V1.684H394.427V3.684ZM469.846 2.684V21.8192H471.846V2.684H469.846ZM470.846 20.8192H444.763V22.8192H470.846V20.8192ZM443.763 21.8192V88H445.763V21.8192H443.763ZM444.763 87H420.631V89H444.763V87ZM421.631 88V21.8192H419.631V88H421.631ZM527.493 79.3465L526.79 80.0578L526.794 80.0618L527.493 79.3465ZM517.012 2.684V1.684H516.012V2.684H517.012ZM541.144 2.684H542.144V1.684H541.144V2.684ZM573.442 2.684V1.684H572.442V2.684H573.442ZM597.209 2.684H598.209V1.684H597.209V2.684ZM586.605 79.3465L585.906 78.6312L585.902 78.6353L586.605 79.3465ZM557.11 88.7063C544.619 88.7063 535.026 85.3077 528.192 78.6312L526.794 80.0618C534.099 87.1984 544.25 90.7063 557.11 90.7063V88.7063ZM528.196 78.6353C521.449 71.9669 518.012 62.4629 518.012 49.9734H516.012C516.012 62.835 519.562 72.9131 526.79 80.0577L528.196 78.6353ZM518.012 49.9734V2.684H516.012V49.9734H518.012ZM517.012 3.684H541.144V1.684H517.012V3.684ZM540.144 2.684V49.2422H542.144V2.684H540.144ZM540.144 49.2422C540.144 56.1725 541.511 61.5549 544.412 65.2197C547.349 68.9291 551.726 70.718 557.354 70.718V68.718C552.175 68.718 548.447 67.0942 545.98 63.9783C543.478 60.8179 542.144 55.9624 542.144 49.2422H540.144ZM557.354 70.718C562.944 70.718 567.291 68.9273 570.206 65.2169C573.086 61.5523 574.442 56.1712 574.442 49.2422H572.442C572.442 55.9637 571.117 60.8204 568.634 63.9812C566.186 67.0961 562.49 68.718 557.354 68.718V70.718ZM574.442 49.2422V2.684H572.442V49.2422H574.442ZM573.442 3.684H597.209V1.684H573.442V3.684ZM596.209 2.684V49.9734H598.209V2.684H596.209ZM596.209 49.9734C596.209 62.4597 592.732 71.9622 585.906 78.6312L587.304 80.0618C594.616 72.9177 598.209 62.8382 598.209 49.9734H596.209ZM585.902 78.6353C579.151 85.3075 569.602 88.7063 557.11 88.7063V90.7063C569.969 90.7063 580.083 87.1986 587.308 80.0577L585.902 78.6353ZM624.648 87.1468L624.902 86.1796L624.648 87.1468ZM608.803 80.3216L607.89 79.9148L607.555 80.668L608.23 81.1408L608.803 80.3216ZM616.726 62.5271L617.276 61.6923L616.292 61.043L615.812 62.1204L616.726 62.5271ZM630.01 68.6211L630.304 67.665L630.01 68.6211ZM654.752 58.6269L654.328 59.5324L654.344 59.5403L654.362 59.5475L654.752 58.6269ZM642.077 54.8486L642.294 53.8724L642.287 53.871L642.077 54.8486ZM625.988 50.461L625.635 51.3966L625.643 51.3995L625.651 51.4023L625.988 50.461ZM614.532 14.6282L615.356 15.1941L615.361 15.1866L614.532 14.6282ZM627.207 4.63408L626.813 3.71492L626.809 3.71701L627.207 4.63408ZM664.624 2.92776L664.392 3.90041L664.399 3.90206L664.406 3.9036L664.624 2.92776ZM679.006 8.41235L679.93 8.79563L680.263 7.99172L679.513 7.55042L679.006 8.41235ZM671.572 26.3287L671.096 27.2086L672.071 27.7348L672.495 26.712L671.572 26.3287ZM637.445 21.941L637.978 22.7873L637.989 22.7803L638 22.7731L637.445 21.941ZM638.055 32.5446L637.654 33.4608L638.055 32.5446ZM650.608 36.0791L650.816 35.101L650.815 35.1007L650.608 36.0791ZM666.696 40.5887L666.337 41.522L666.348 41.5261L666.359 41.53L666.696 40.5887ZM677.787 48.1452L677.038 48.8074L677.046 48.8167L677.055 48.8257L677.787 48.1452ZM678.275 76.0558L677.45 75.4899L678.275 76.0558ZM665.478 86.0499L665.872 86.9691L665.883 86.9643L665.478 86.0499ZM644.758 88.7063C637.935 88.7063 631.317 87.8636 624.902 86.1796L624.394 88.1141C630.979 89.8427 637.768 90.7063 644.758 90.7063V88.7063ZM624.902 86.1796C618.478 84.4934 613.315 82.259 609.377 79.5023L608.23 81.1408C612.417 84.0719 617.817 86.3877 624.394 88.1141L624.902 86.1796ZM609.717 80.7283L617.639 62.9338L615.812 62.1204L607.89 79.9148L609.717 80.7283ZM616.175 63.3619C620.085 65.9405 624.602 68.0096 629.717 69.5772L630.304 67.665C625.344 66.145 621.004 64.1514 617.276 61.6923L616.175 63.3619ZM629.717 69.5772C634.843 71.1478 639.898 71.9368 644.88 71.9368V69.9368C640.112 69.9368 635.254 69.182 630.304 67.665L629.717 69.5772ZM644.88 71.9368C649.562 71.9368 653.223 71.3568 655.748 70.0944C657.024 69.4562 658.042 68.6279 658.738 67.5837C659.438 66.5333 659.774 65.3225 659.774 63.9896H657.774C657.774 64.9725 657.531 65.7879 657.074 66.4743C656.612 67.167 655.893 67.786 654.853 68.3056C652.747 69.359 649.46 69.9368 644.88 69.9368V71.9368ZM659.774 63.9896C659.774 62.5753 659.381 61.3036 658.569 60.2208C657.765 59.1493 656.598 58.3236 655.143 57.7063L654.362 59.5475C655.588 60.0678 656.432 60.7047 656.969 61.4208C657.497 62.1255 657.774 62.9664 657.774 63.9896H659.774ZM655.177 57.7215C652.471 56.4533 648.156 55.1751 642.294 53.8725L641.86 55.8248C647.698 57.1223 651.833 58.3629 654.328 59.5324L655.177 57.7215ZM642.287 53.871C635.894 52.4954 630.577 51.0437 626.326 49.5196L625.651 51.4023C630.013 52.9659 635.421 54.4393 641.866 55.8263L642.287 53.871ZM626.341 49.5254C622.19 47.9586 618.628 45.4938 615.647 42.1203L614.148 43.4447C617.342 47.059 621.175 49.7132 625.635 51.3966L626.341 49.5254ZM615.647 42.1203C612.761 38.8547 611.266 34.4004 611.266 28.6444H609.266C609.266 34.7514 610.859 39.7226 614.148 43.4447L615.647 42.1203ZM611.266 28.6444C611.266 23.6388 612.631 19.1654 615.356 15.1941L613.707 14.0624C610.745 18.3789 609.266 23.2497 609.266 28.6444H611.266ZM615.361 15.1866C618.079 11.1489 622.139 7.9281 627.606 5.55115L626.809 3.71701C621.063 6.21525 616.672 9.65725 613.702 14.0699L615.361 15.1866ZM627.601 5.55322C633.131 3.18332 639.936 1.97768 648.049 1.97768V-0.0223236C639.749 -0.0223236 632.659 1.20964 626.813 3.71494L627.601 5.55322ZM648.049 1.97768C653.577 1.97768 659.024 2.61856 664.392 3.90041L664.857 1.95511C659.336 0.636852 653.733 -0.0223236 648.049 -0.0223236V1.97768ZM664.406 3.9036C669.764 5.10324 674.458 6.89712 678.499 9.27429L679.513 7.55042C675.267 5.05239 670.372 3.18988 664.843 1.95192L664.406 3.9036ZM678.083 8.02908L670.648 25.9454L672.495 26.712L679.93 8.79563L678.083 8.02908ZM672.047 25.4488C663.806 20.9987 655.762 18.7472 647.927 18.7472V20.7472C655.367 20.7472 663.087 22.8834 671.096 27.2086L672.047 25.4488ZM647.927 18.7472C643.075 18.7472 639.335 19.4791 636.891 21.109L638 22.7731C639.943 21.4779 643.191 20.7472 647.927 20.7472V18.7472ZM636.912 21.0948C634.476 22.629 633.154 24.7539 633.154 27.4256H635.154C635.154 25.5472 636.027 24.0156 637.978 22.7873L636.912 21.0948ZM633.154 27.4256C633.154 28.768 633.543 29.9795 634.334 31.0177C635.115 32.0429 636.247 32.8451 637.654 33.4608L638.455 31.6284C637.263 31.1065 636.444 30.4869 635.925 29.8057C635.416 29.1376 635.154 28.3584 635.154 27.4256H633.154ZM637.654 33.4608C640.353 34.6415 644.621 35.8363 650.401 37.0575L650.815 35.1007C645.057 33.8843 640.957 32.7228 638.455 31.6284L637.654 33.4608ZM650.4 37.0573C656.871 38.4322 662.178 39.9224 666.337 41.522L667.055 39.6553C662.764 38.0049 657.346 36.4886 650.816 35.101L650.4 37.0573ZM666.359 41.53C670.504 43.0158 674.06 45.4373 677.038 48.8074L678.537 47.483C675.34 43.8654 671.502 41.2491 667.034 39.6473L666.359 41.53ZM677.055 48.8257C680.009 52.0068 681.541 56.4107 681.541 62.1614H683.541C683.541 56.0492 681.904 51.109 678.52 47.4648L677.055 48.8257ZM681.541 62.1614C681.541 67.0824 680.178 71.5158 677.45 75.4899L679.099 76.6216C682.06 72.3079 683.541 67.4784 683.541 62.1614H681.541ZM677.45 75.4899C674.734 79.4485 670.631 82.674 665.073 85.1356L665.883 86.9643C671.7 84.3882 676.128 80.9509 679.099 76.6216L677.45 75.4899ZM665.084 85.1308C659.553 87.5011 652.788 88.7063 644.758 88.7063V90.7063C652.978 90.7063 660.027 89.4739 665.872 86.9691L665.084 85.1308Z" fill="white" fill-opacity="0.2"/>
</svg>
