<svg width="1292" height="90" viewBox="0 0 1292 90" fill="none" xmlns="http://www.w3.org/2000/svg">
<path d="M67.6933 71.4243L68.6204 71.0494L68.3676 70.4243H67.6933V71.4243ZM31.6168 71.4243V70.4243H30.9426L30.6898 71.0494L31.6168 71.4243ZM24.9134 88V89H25.5877L25.8405 88.3749L24.9134 88ZM0.29368 88L-0.621153 87.5962L-1.24084 89H0.29368V88ZM37.9546 2.684V1.684H37.3029L37.0398 2.28016L37.9546 2.684ZM61.7212 2.684L62.6355 2.27907L62.372 1.684H61.7212V2.684ZM99.504 88V89H101.041L100.418 87.5951L99.504 88ZM74.3967 88L73.4697 88.3749L73.7225 89H74.3967V88ZM60.6243 53.6298V54.6298H62.1038L61.5522 53.257L60.6243 53.6298ZM49.6551 26.3287L50.583 25.9559L49.6551 23.6464L48.7272 25.9559L49.6551 26.3287ZM38.6859 53.6298L37.758 53.257L37.2064 54.6298H38.6859V53.6298ZM67.6933 70.4243H31.6168V72.4243H67.6933V70.4243ZM30.6898 71.0494L23.9864 87.6251L25.8405 88.3749L32.5439 71.7992L30.6898 71.0494ZM24.9134 87H0.29368V89H24.9134V87ZM1.20851 88.4038L38.8694 3.08783L37.0398 2.28016L-0.621153 87.5962L1.20851 88.4038ZM37.9546 3.684H61.7212V1.684H37.9546V3.684ZM60.8069 3.08892L98.5897 88.4049L100.418 87.5951L62.6355 2.27907L60.8069 3.08892ZM99.504 87H74.3967V89H99.504V87ZM75.3238 87.6251L68.6204 71.0494L66.7663 71.7992L73.4697 88.3749L75.3238 87.6251ZM61.5522 53.257L50.583 25.9559L48.7272 26.7015L59.6964 54.0027L61.5522 53.257ZM48.7272 25.9559L37.758 53.257L39.6138 54.0027L50.583 26.7015L48.7272 25.9559ZM38.6859 54.6298H60.6243V52.6298H38.6859V54.6298ZM166.676 6.58416L166.26 7.49369L166.271 7.4985L166.676 6.58416ZM179.839 17.5534L178.998 18.0949L179.003 18.1014L179.839 17.5534ZM179.839 50.9485L180.676 51.4965L179.839 50.9485ZM166.676 61.9177L167.081 62.8321L167.092 62.8272L166.676 61.9177ZM131.697 65.696V64.696H130.697V65.696H131.697ZM131.697 88V89H132.697V88H131.697ZM107.564 88H106.564V89H107.564V88ZM107.564 2.684V1.684H106.564V2.684H107.564ZM156.316 43.5138L156.959 44.28L156.966 44.274L156.973 44.2679L156.316 43.5138ZM131.697 21.6973V20.6973H130.697V21.6973H131.697ZM131.697 46.6827H130.697V47.6827H131.697V46.6827ZM146.566 3.684C154.174 3.684 160.73 4.96545 166.26 7.49363L167.092 5.67468C161.247 3.00265 154.396 1.684 146.566 1.684V3.684ZM166.271 7.4985C171.797 9.94578 176.026 13.48 178.998 18.0948L180.68 17.0119C177.477 12.0389 172.93 8.26024 167.081 5.66981L166.271 7.4985ZM179.003 18.1014C181.969 22.6293 183.471 27.9987 183.471 34.2509H185.471C185.471 27.6651 183.884 21.9028 180.676 17.0053L179.003 18.1014ZM183.471 34.2509C183.471 40.5032 181.969 45.8725 179.003 50.4005L180.676 51.4965C183.884 46.5991 185.471 40.8367 185.471 34.2509H183.471ZM179.003 50.4005C176.03 54.9384 171.796 58.4776 166.26 61.0082L167.092 62.8272C172.932 60.1576 177.473 56.3839 180.676 51.4965L179.003 50.4005ZM166.271 61.0033C160.738 63.4538 154.178 64.696 146.566 64.696V66.696C154.392 66.696 161.239 65.4192 167.081 62.832L166.271 61.0033ZM146.566 64.696H131.697V66.696H146.566V64.696ZM130.697 65.696V88H132.697V65.696H130.697ZM131.697 87H107.564V89H131.697V87ZM108.564 88V2.684H106.564V88H108.564ZM107.564 3.684H146.566V1.684H107.564V3.684ZM145.103 47.6827C150.18 47.6827 154.188 46.6038 156.959 44.28L155.674 42.7476C153.407 44.649 149.939 45.6827 145.103 45.6827V47.6827ZM156.973 44.2679C159.752 41.8475 161.095 38.4606 161.095 34.2509H159.095C159.095 38.0041 157.918 40.7924 155.659 42.7597L156.973 44.2679ZM161.095 34.2509C161.095 30.0412 159.752 26.6544 156.973 24.234L155.659 25.7421C157.918 27.7094 159.095 30.4978 159.095 34.2509H161.095ZM156.973 24.234C154.202 21.8201 150.188 20.6973 145.103 20.6973V22.6973C149.932 22.6973 153.393 23.7683 155.659 25.7421L156.973 24.234ZM145.103 20.6973H131.697V22.6973H145.103V20.6973ZM130.697 21.6973V46.6827H132.697V21.6973H130.697ZM131.697 47.6827H145.103V45.6827H131.697V47.6827ZM256.567 6.58416L256.152 7.49369L256.162 7.4985L256.567 6.58416ZM269.73 17.5534L268.89 18.0949L268.894 18.1014L269.73 17.5534ZM269.73 50.9485L270.567 51.4965L269.73 50.9485ZM256.567 61.9177L256.972 62.8321L256.983 62.8272L256.567 61.9177ZM221.588 65.696V64.696H220.588V65.696H221.588ZM221.588 88V89H222.588V88H221.588ZM197.456 88H196.456V89H197.456V88ZM197.456 2.684V1.684H196.456V2.684H197.456ZM246.208 43.5138L246.85 44.28L246.857 44.274L246.864 44.2679L246.208 43.5138ZM221.588 21.6973V20.6973H220.588V21.6973H221.588ZM221.588 46.6827H220.588V47.6827H221.588V46.6827ZM236.457 3.684C244.066 3.684 250.621 4.96545 256.152 7.49363L256.983 5.67468C251.138 3.00265 244.287 1.684 236.457 1.684V3.684ZM256.162 7.4985C261.689 9.94578 265.917 13.48 268.89 18.0948L270.571 17.0119C267.368 12.0389 262.822 8.26024 256.972 5.66981L256.162 7.4985ZM268.894 18.1014C271.861 22.6293 273.362 27.9987 273.362 34.2509H275.362C275.362 27.6651 273.776 21.9028 270.567 17.0053L268.894 18.1014ZM273.362 34.2509C273.362 40.5032 271.861 45.8725 268.894 50.4005L270.567 51.4965C273.776 46.5991 275.362 40.8367 275.362 34.2509H273.362ZM268.894 50.4005C265.921 54.9384 261.687 58.4776 256.152 61.0082L256.983 62.8272C262.823 60.1576 267.365 56.3839 270.567 51.4965L268.894 50.4005ZM256.162 61.0033C250.629 63.4538 244.069 64.696 236.457 64.696V66.696C244.283 66.696 251.13 65.4192 256.972 62.832L256.162 61.0033ZM236.457 64.696H221.588V66.696H236.457V64.696ZM220.588 65.696V88H222.588V65.696H220.588ZM221.588 87H197.456V89H221.588V87ZM198.456 88V2.684H196.456V88H198.456ZM197.456 3.684H236.457V1.684H197.456V3.684ZM234.995 47.6827C240.071 47.6827 244.079 46.6038 246.85 44.28L245.565 42.7476C243.298 44.649 239.831 45.6827 234.995 45.6827V47.6827ZM246.864 44.2679C249.643 41.8475 250.986 38.4606 250.986 34.2509H248.986C248.986 38.0041 247.809 40.7924 245.551 42.7597L246.864 44.2679ZM250.986 34.2509C250.986 30.0412 249.643 26.6544 246.864 24.234L245.551 25.7421C247.809 27.7094 248.986 30.4978 248.986 34.2509H250.986ZM246.864 24.234C244.093 21.8201 240.079 20.6973 234.995 20.6973V22.6973C239.823 22.6973 243.284 23.7683 245.551 25.7421L246.864 24.234ZM234.995 20.6973H221.588V22.6973H234.995V20.6973ZM220.588 21.6973V46.6827H222.588V21.6973H220.588ZM221.588 47.6827H234.995V45.6827H221.588V47.6827ZM287.347 2.684V1.684H286.347V2.684H287.347ZM311.479 2.684H312.479V1.684H311.479V2.684ZM311.479 68.8648H310.479V69.8648H311.479V68.8648ZM352.187 68.8648H353.187V67.8648H352.187V68.8648ZM352.187 88V89H353.187V88H352.187ZM287.347 88H286.347V89H287.347V88ZM287.347 3.684H311.479V1.684H287.347V3.684ZM310.479 2.684V68.8648H312.479V2.684H310.479ZM311.479 69.8648H352.187V67.8648H311.479V69.8648ZM351.187 68.8648V88H353.187V68.8648H351.187ZM352.187 87H287.347V89H352.187V87ZM288.347 88V2.684H286.347V88H288.347ZM362.955 2.684V1.684H361.955V2.684H362.955ZM387.087 2.684H388.087V1.684H387.087V2.684ZM387.087 88V89H388.087V88H387.087ZM362.955 88H361.955V89H362.955V88ZM362.955 3.684H387.087V1.684H362.955V3.684ZM386.087 2.684V88H388.087V2.684H386.087ZM387.087 87H362.955V89H387.087V87ZM363.955 88V2.684H361.955V88H363.955ZM462.637 71.4243L463.564 71.0494L463.311 70.4243H462.637V71.4243ZM426.56 71.4243V70.4243H425.886L425.633 71.0494L426.56 71.4243ZM419.857 88V89H420.531L420.784 88.3749L419.857 88ZM395.237 88L394.322 87.5962L393.703 89H395.237V88ZM432.898 2.684V1.684H432.247L431.983 2.28016L432.898 2.684ZM456.665 2.684L457.579 2.27907L457.316 1.684H456.665V2.684ZM494.448 88V89H495.984L495.362 87.5951L494.448 88ZM469.34 88L468.413 88.3749L468.666 89H469.34V88ZM455.568 53.6298V54.6298H457.047L456.496 53.257L455.568 53.6298ZM444.599 26.3287L445.527 25.9559L444.599 23.6464L443.671 25.9559L444.599 26.3287ZM433.629 53.6298L432.702 53.257L432.15 54.6298H433.629V53.6298ZM462.637 70.4243H426.56V72.4243H462.637V70.4243ZM425.633 71.0494L418.93 87.6251L420.784 88.3749L427.487 71.7992L425.633 71.0494ZM419.857 87H395.237V89H419.857V87ZM396.152 88.4038L433.813 3.08783L431.983 2.28016L394.322 87.5962L396.152 88.4038ZM432.898 3.684H456.665V1.684H432.898V3.684ZM455.75 3.08892L493.533 88.4049L495.362 87.5951L457.579 2.27907L455.75 3.08892ZM494.448 87H469.34V89H494.448V87ZM470.267 87.6251L463.564 71.0494L461.71 71.7992L468.413 88.3749L470.267 87.6251ZM456.496 53.257L445.527 25.9559L443.671 26.7015L454.64 54.0027L456.496 53.257ZM443.671 25.9559L432.702 53.257L434.557 54.0027L445.527 26.7015L443.671 25.9559ZM433.629 54.6298H455.568V52.6298H433.629V54.6298ZM583.68 2.684H584.68V1.684H583.68V2.684ZM583.68 88V89H584.68V88H583.68ZM563.813 88L563.043 88.6379L563.343 89H563.813V88ZM526.153 42.5388L526.923 41.9008L525.153 39.7641V42.5388H526.153ZM526.153 88V89H527.153V88H526.153ZM502.508 88H501.508V89H502.508V88ZM502.508 2.684V1.684H501.508V2.684H502.508ZM522.374 2.684L523.144 2.04605L522.844 1.684H522.374V2.684ZM560.035 48.1452L559.265 48.7832L561.035 50.9199V48.1452H560.035ZM560.035 2.684V1.684H559.035V2.684H560.035ZM582.68 2.684V88H584.68V2.684H582.68ZM583.68 87H563.813V89H583.68V87ZM564.584 87.3621L526.923 41.9008L525.382 43.1767L563.043 88.6379L564.584 87.3621ZM525.153 42.5388V88H527.153V42.5388H525.153ZM526.153 87H502.508V89H526.153V87ZM503.508 88V2.684H501.508V88H503.508ZM502.508 3.684H522.374V1.684H502.508V3.684ZM521.604 3.32194L559.265 48.7832L560.805 47.5073L523.144 2.04605L521.604 3.32194ZM561.035 48.1452V2.684H559.035V48.1452H561.035ZM560.035 3.684H583.68V1.684H560.035V3.684ZM620.325 84.0998L619.849 84.9797L619.862 84.9861L620.325 84.0998ZM603.627 68.2554L604.484 67.7394L603.627 68.2554ZM603.627 22.4286L602.771 21.9125L603.627 22.4286ZM620.325 6.70604L620.792 7.59008L620.796 7.58811L620.325 6.70604ZM665.542 5.1216L665.138 6.03639L665.542 5.1216ZM681.143 17.0658L681.814 17.8074L682.51 17.1772L681.925 16.4426L681.143 17.0658ZM665.786 30.9602L665.016 31.5985L665.683 32.4022L666.457 31.7017L665.786 30.9602ZM633.244 24.013L632.758 23.1388L632.75 23.1435L633.244 24.013ZM624.834 32.6665L623.956 32.1889L623.952 32.1959L624.834 32.6665ZM624.834 58.1394L623.948 58.602L623.954 58.6136L623.96 58.625L624.834 58.1394ZM633.244 66.671L632.75 67.5405L632.758 67.5452L633.244 66.671ZM665.786 59.7238L666.457 58.9823L665.683 58.2818L665.016 59.0855L665.786 59.7238ZM681.143 73.6182L681.925 74.2414L682.51 73.5068L681.814 72.8766L681.143 73.6182ZM665.542 85.5624L665.138 84.6476L665.542 85.5624ZM644.457 88.7063C635.663 88.7063 627.781 86.8687 620.788 83.2136L619.862 84.9861C627.17 88.8062 635.376 90.7063 644.457 90.7063V88.7063ZM620.8 83.22C613.885 79.4843 608.452 74.327 604.484 67.7394L602.771 68.7715C606.928 75.6719 612.627 81.0776 619.85 84.9797L620.8 83.22ZM604.484 67.7394C600.523 61.1641 598.533 53.7075 598.533 45.342H596.533C596.533 54.0397 598.606 61.8587 602.771 68.7715L604.484 67.7394ZM598.533 45.342C598.533 36.9765 600.523 29.5199 604.484 22.9446L602.771 21.9125C598.606 28.8253 596.533 36.6443 596.533 45.342H598.533ZM604.484 22.9446C608.451 16.3589 613.881 11.2441 620.792 7.59007L619.857 5.822C612.63 9.64326 606.929 15.0102 602.771 21.9125L604.484 22.9446ZM620.796 7.58811C627.787 3.85434 635.666 1.97768 644.457 1.97768V-0.0223236C635.372 -0.0223236 627.163 1.91992 619.854 5.82396L620.796 7.58811ZM644.457 1.97768C652.138 1.97768 659.026 3.33733 665.138 6.03639L665.946 4.20681C659.546 1.38063 652.377 -0.0223236 644.457 -0.0223236V1.97768ZM665.138 6.03639C671.252 8.7357 676.321 12.6188 680.361 17.689L681.925 16.4426C677.677 11.1124 672.346 7.03273 665.946 4.20681L665.138 6.03639ZM680.472 16.3243L665.115 30.2186L666.457 31.7017L681.814 17.8074L680.472 16.3243ZM666.556 30.3218C660.862 23.4555 653.887 19.966 645.676 19.966V21.966C653.228 21.966 659.66 25.1393 665.016 31.5985L666.556 30.3218ZM645.676 19.966C640.893 19.966 636.579 21.0164 632.758 23.1388L633.73 24.8872C637.222 22.947 641.196 21.966 645.676 21.966V19.966ZM632.75 23.1435C629.007 25.2704 626.073 28.2933 623.956 32.189L625.713 33.144C627.658 29.5644 630.331 26.8183 633.738 24.8825L632.75 23.1435ZM623.952 32.1959C621.913 36.0184 620.909 40.4098 620.909 45.342H622.909C622.909 40.6863 623.855 36.6274 625.717 33.1371L623.952 32.1959ZM620.909 45.342C620.909 50.2747 621.914 54.703 623.948 58.602L625.721 57.6768C623.855 54.1005 622.909 49.9972 622.909 45.342H620.909ZM623.96 58.625C626.079 62.4389 629.013 65.4168 632.75 67.5405L633.738 65.8015C630.325 63.8625 627.652 61.1527 625.709 57.6538L623.96 58.625ZM632.758 67.5452C636.579 69.6676 640.893 70.718 645.676 70.718V68.718C641.196 68.718 637.222 67.737 633.73 65.7968L632.758 67.5452ZM645.676 70.718C653.887 70.718 660.862 67.2285 666.556 60.3622L665.016 59.0855C659.66 65.5447 653.228 68.718 645.676 68.718V70.718ZM665.115 60.4654L680.472 74.3597L681.814 72.8766L666.457 58.9823L665.115 60.4654ZM680.361 72.995C676.321 78.0652 671.252 81.9483 665.138 84.6476L665.946 86.4772C672.346 83.6513 677.677 79.5716 681.925 74.2414L680.361 72.995ZM665.138 84.6476C659.026 87.3467 652.138 88.7063 644.457 88.7063V90.7063C652.377 90.7063 659.546 89.3034 665.946 86.4772L665.138 84.6476ZM761.618 69.3524H762.618V68.3524H761.618V69.3524ZM761.618 88V89H762.618V88H761.618ZM693.122 88H692.122V89H693.122V88ZM693.122 2.684V1.684H692.122V2.684H693.122ZM760.034 2.684H761.034V1.684H760.034V2.684ZM760.034 21.3316V22.3316H761.034V21.3316H760.034ZM717.01 21.3316V20.3316H716.01V21.3316H717.01ZM717.01 35.7135H716.01V36.7135H717.01V35.7135ZM754.915 35.7135H755.915V34.7135H754.915V35.7135ZM754.915 53.7517V54.7517H755.915V53.7517H754.915ZM717.01 53.7517V52.7517H716.01V53.7517H717.01ZM717.01 69.3524H716.01V70.3524H717.01V69.3524ZM760.618 69.3524V88H762.618V69.3524H760.618ZM761.618 87H693.122V89H761.618V87ZM694.122 88V2.684H692.122V88H694.122ZM693.122 3.684H760.034V1.684H693.122V3.684ZM759.034 2.684V21.3316H761.034V2.684H759.034ZM760.034 20.3316H717.01V22.3316H760.034V20.3316ZM716.01 21.3316V35.7135H718.01V21.3316H716.01ZM717.01 36.7135H754.915V34.7135H717.01V36.7135ZM753.915 35.7135V53.7517H755.915V35.7135H753.915ZM754.915 52.7517H717.01V54.7517H754.915V52.7517ZM716.01 53.7517V69.3524H718.01V53.7517H716.01ZM717.01 70.3524H761.618V68.3524H717.01V70.3524ZM850.211 65.3303L851.037 64.7664L850.74 64.3303H850.211V65.3303ZM837.048 65.3303V64.3303H836.048V65.3303H837.048ZM837.048 88V89H838.048V88H837.048ZM812.916 88H811.916V89H812.916V88ZM812.916 2.684V1.684H811.916V2.684H812.916ZM872.028 6.58416L871.612 7.49369L871.623 7.4985L872.028 6.58416ZM885.191 17.5534L884.35 18.0949L884.355 18.1014L885.191 17.5534ZM885.435 50.461L884.589 49.927L884.587 49.931L885.435 50.461ZM873.125 61.1864L872.689 60.2866L871.643 60.7938L872.3 61.7523L873.125 61.1864ZM891.529 88V89H893.428L892.353 87.4341L891.529 88ZM865.69 88L864.864 88.5639L865.162 89H865.69V88ZM837.048 21.6973V20.6973H836.048V21.6973H837.048ZM837.048 46.6827H836.048V47.6827H837.048V46.6827ZM861.668 43.5138L862.311 44.28L862.318 44.274L862.325 44.2679L861.668 43.5138ZM850.211 64.3303H837.048V66.3303H850.211V64.3303ZM836.048 65.3303V88H838.048V65.3303H836.048ZM837.048 87H812.916V89H837.048V87ZM813.916 88V2.684H811.916V88H813.916ZM812.916 3.684H851.918V1.684H812.916V3.684ZM851.918 3.684C859.526 3.684 866.082 4.96545 871.612 7.49363L872.444 5.67468C866.599 3.00265 859.748 1.684 851.918 1.684V3.684ZM871.623 7.4985C877.149 9.94578 881.378 13.48 884.35 18.0948L886.032 17.0119C882.829 12.0389 878.282 8.26024 872.433 5.66981L871.623 7.4985ZM884.355 18.1014C887.321 22.6293 888.822 27.9987 888.822 34.2509H890.822C890.822 27.6651 889.236 21.9028 886.027 17.0053L884.355 18.1014ZM888.822 34.2509C888.822 40.2619 887.401 45.4751 884.589 49.927L886.28 50.9949C889.319 46.184 890.822 40.5904 890.822 34.2509H888.822ZM884.587 49.931C881.853 54.3043 877.901 57.7592 872.689 60.2866L873.561 62.0862C879.074 59.4134 883.328 55.718 886.283 50.991L884.587 49.931ZM872.3 61.7523L890.704 88.5659L892.353 87.4341L873.949 60.6205L872.3 61.7523ZM891.529 87H865.69V89H891.529V87ZM866.516 87.4361L851.037 64.7664L849.386 65.8942L864.864 88.5639L866.516 87.4361ZM866.446 34.2509C866.446 30.0412 865.104 26.6544 862.325 24.234L861.011 25.7421C863.27 27.7094 864.446 30.4978 864.446 34.2509H866.446ZM862.325 24.234C859.554 21.8201 855.539 20.6973 850.455 20.6973V22.6973C855.284 22.6973 858.745 23.7683 861.011 25.7421L862.325 24.234ZM850.455 20.6973H837.048V22.6973H850.455V20.6973ZM836.048 21.6973V46.6827H838.048V21.6973H836.048ZM837.048 47.6827H850.455V45.6827H837.048V47.6827ZM850.455 47.6827C855.532 47.6827 859.54 46.6038 862.311 44.28L861.026 42.7476C858.759 44.649 855.291 45.6827 850.455 45.6827V47.6827ZM862.325 44.2679C865.104 41.8475 866.446 38.4606 866.446 34.2509H864.446C864.446 38.0041 863.27 40.7924 861.011 42.7597L862.325 44.2679ZM972.851 69.3524H973.851V68.3524H972.851V69.3524ZM972.851 88V89H973.851V88H972.851ZM904.355 88H903.355V89H904.355V88ZM904.355 2.684V1.684H903.355V2.684H904.355ZM971.267 2.684H972.267V1.684H971.267V2.684ZM971.267 21.3316V22.3316H972.267V21.3316H971.267ZM928.243 21.3316V20.3316H927.243V21.3316H928.243ZM928.243 35.7135H927.243V36.7135H928.243V35.7135ZM966.148 35.7135H967.148V34.7135H966.148V35.7135ZM966.148 53.7517V54.7517H967.148V53.7517H966.148ZM928.243 53.7517V52.7517H927.243V53.7517H928.243ZM928.243 69.3524H927.243V70.3524H928.243V69.3524ZM971.851 69.3524V88H973.851V69.3524H971.851ZM972.851 87H904.355V89H972.851V87ZM905.355 88V2.684H903.355V88H905.355ZM904.355 3.684H971.267V1.684H904.355V3.684ZM970.267 2.684V21.3316H972.267V2.684H970.267ZM971.267 20.3316H928.243V22.3316H971.267V20.3316ZM927.243 21.3316V35.7135H929.243V21.3316H927.243ZM928.243 36.7135H966.148V34.7135H928.243V36.7135ZM965.148 35.7135V53.7517H967.148V35.7135H965.148ZM966.148 52.7517H928.243V54.7517H966.148V52.7517ZM927.243 53.7517V69.3524H929.243V53.7517H927.243ZM928.243 70.3524H972.851V68.3524H928.243V70.3524ZM1046.57 6.58416L1046.16 7.49369L1046.17 7.4985L1046.57 6.58416ZM1059.74 17.5534L1058.9 18.0949L1058.9 18.1014L1059.74 17.5534ZM1059.74 50.9485L1060.57 51.4965L1059.74 50.9485ZM1046.57 61.9177L1046.98 62.8321L1046.99 62.8272L1046.57 61.9177ZM1011.59 65.696V64.696H1010.59V65.696H1011.59ZM1011.59 88V89H1012.59V88H1011.59ZM987.462 88H986.462V89H987.462V88ZM987.462 2.684V1.684H986.462V2.684H987.462ZM1036.21 43.5138L1036.86 44.28L1036.86 44.274L1036.87 44.2679L1036.21 43.5138ZM1011.59 21.6973V20.6973H1010.59V21.6973H1011.59ZM1011.59 46.6827H1010.59V47.6827H1011.59V46.6827ZM1026.46 3.684C1034.07 3.684 1040.63 4.96545 1046.16 7.49363L1046.99 5.67468C1041.14 3.00265 1034.29 1.684 1026.46 1.684V3.684ZM1046.17 7.4985C1051.69 9.94578 1055.92 13.48 1058.9 18.0948L1060.58 17.0119C1057.37 12.0389 1052.83 8.26024 1046.98 5.66981L1046.17 7.4985ZM1058.9 18.1014C1061.87 22.6293 1063.37 27.9987 1063.37 34.2509H1065.37C1065.37 27.6651 1063.78 21.9028 1060.57 17.0053L1058.9 18.1014ZM1063.37 34.2509C1063.37 40.5032 1061.87 45.8725 1058.9 50.4005L1060.57 51.4965C1063.78 46.5991 1065.37 40.8367 1065.37 34.2509H1063.37ZM1058.9 50.4005C1055.93 54.9384 1051.69 58.4776 1046.16 61.0082L1046.99 62.8272C1052.83 60.1576 1057.37 56.3839 1060.57 51.4965L1058.9 50.4005ZM1046.17 61.0033C1040.64 63.4538 1034.08 64.696 1026.46 64.696V66.696C1034.29 66.696 1041.14 65.4192 1046.98 62.832L1046.17 61.0033ZM1026.46 64.696H1011.59V66.696H1026.46V64.696ZM1010.59 65.696V88H1012.59V65.696H1010.59ZM1011.59 87H987.462V89H1011.59V87ZM988.462 88V2.684H986.462V88H988.462ZM987.462 3.684H1026.46V1.684H987.462V3.684ZM1025 47.6827C1030.08 47.6827 1034.09 46.6038 1036.86 44.28L1035.57 42.7476C1033.3 44.649 1029.84 45.6827 1025 45.6827V47.6827ZM1036.87 44.2679C1039.65 41.8475 1040.99 38.4606 1040.99 34.2509H1038.99C1038.99 38.0041 1037.82 40.7924 1035.56 42.7597L1036.87 44.2679ZM1040.99 34.2509C1040.99 30.0412 1039.65 26.6544 1036.87 24.234L1035.56 25.7421C1037.82 27.7094 1038.99 30.4978 1038.99 34.2509H1040.99ZM1036.87 24.234C1034.1 21.8201 1030.08 20.6973 1025 20.6973V22.6973C1029.83 22.6973 1033.29 23.7683 1035.56 25.7421L1036.87 24.234ZM1025 20.6973H1011.59V22.6973H1025V20.6973ZM1010.59 21.6973V46.6827H1012.59V21.6973H1010.59ZM1011.59 47.6827H1025V45.6827H1011.59V47.6827ZM1130.23 71.4243L1131.16 71.0494L1130.9 70.4243H1130.23V71.4243ZM1094.15 71.4243V70.4243H1093.48L1093.23 71.0494L1094.15 71.4243ZM1087.45 88V89H1088.12L1088.38 88.3749L1087.45 88ZM1062.83 88L1061.92 87.5962L1061.3 89H1062.83V88ZM1100.49 2.684V1.684H1099.84L1099.58 2.28016L1100.49 2.684ZM1124.26 2.684L1125.17 2.27907L1124.91 1.684H1124.26V2.684ZM1162.04 88V89H1163.58L1162.95 87.5951L1162.04 88ZM1136.93 88L1136.01 88.3749L1136.26 89H1136.93V88ZM1123.16 53.6298V54.6298H1124.64L1124.09 53.257L1123.16 53.6298ZM1112.19 26.3287L1113.12 25.9559L1112.19 23.6464L1111.26 25.9559L1112.19 26.3287ZM1101.22 53.6298L1100.29 53.257L1099.74 54.6298H1101.22V53.6298ZM1130.23 70.4243H1094.15V72.4243H1130.23V70.4243ZM1093.23 71.0494L1086.52 87.6251L1088.38 88.3749L1095.08 71.7992L1093.23 71.0494ZM1087.45 87H1062.83V89H1087.45V87ZM1063.74 88.4038L1101.41 3.08783L1099.58 2.28016L1061.92 87.5962L1063.74 88.4038ZM1100.49 3.684H1124.26V1.684H1100.49V3.684ZM1123.34 3.08892L1161.13 88.4049L1162.95 87.5951L1125.17 2.27907L1123.34 3.08892ZM1162.04 87H1136.93V89H1162.04V87ZM1137.86 87.6251L1131.16 71.0494L1129.3 71.7992L1136.01 88.3749L1137.86 87.6251ZM1124.09 53.257L1113.12 25.9559L1111.26 26.7015L1122.23 54.0027L1124.09 53.257ZM1111.26 25.9559L1100.29 53.257L1102.15 54.0027L1113.12 26.7015L1111.26 25.9559ZM1101.22 54.6298H1123.16V52.6298H1101.22V54.6298ZM1170.1 2.684V1.684H1169.1V2.684H1170.1ZM1194.23 2.684H1195.23V1.684H1194.23V2.684ZM1194.23 88V89H1195.23V88H1194.23ZM1170.1 88H1169.1V89H1170.1V88ZM1170.1 3.684H1194.23V1.684H1170.1V3.684ZM1193.23 2.684V88H1195.23V2.684H1193.23ZM1194.23 87H1170.1V89H1194.23V87ZM1171.1 88V2.684H1169.1V88H1171.1ZM1249.92 65.3303L1250.74 64.7664L1250.44 64.3303H1249.92V65.3303ZM1236.75 65.3303V64.3303H1235.75V65.3303H1236.75ZM1236.75 88V89H1237.75V88H1236.75ZM1212.62 88H1211.62V89H1212.62V88ZM1212.62 2.684V1.684H1211.62V2.684H1212.62ZM1271.73 6.58416L1271.32 7.49369L1271.33 7.4985L1271.73 6.58416ZM1284.9 17.5534L1284.05 18.0949L1284.06 18.1014L1284.9 17.5534ZM1285.14 50.461L1284.29 49.927L1284.29 49.931L1285.14 50.461ZM1272.83 61.1864L1272.39 60.2866L1271.35 60.7938L1272.01 61.7523L1272.83 61.1864ZM1291.23 88V89H1293.13L1292.06 87.4341L1291.23 88ZM1265.39 88L1264.57 88.5639L1264.87 89H1265.39V88ZM1236.75 21.6973V20.6973H1235.75V21.6973H1236.75ZM1236.75 46.6827H1235.75V47.6827H1236.75V46.6827ZM1261.37 43.5138L1262.02 44.28L1262.02 44.274L1262.03 44.2679L1261.37 43.5138ZM1249.92 64.3303H1236.75V66.3303H1249.92V64.3303ZM1235.75 65.3303V88H1237.75V65.3303H1235.75ZM1236.75 87H1212.62V89H1236.75V87ZM1213.62 88V2.684H1211.62V88H1213.62ZM1212.62 3.684H1251.62V1.684H1212.62V3.684ZM1251.62 3.684C1259.23 3.684 1265.79 4.96545 1271.32 7.49363L1272.15 5.67468C1266.3 3.00265 1259.45 1.684 1251.62 1.684V3.684ZM1271.33 7.4985C1276.85 9.94578 1281.08 13.48 1284.05 18.0948L1285.74 17.0119C1282.53 12.0389 1277.99 8.26024 1272.14 5.66981L1271.33 7.4985ZM1284.06 18.1014C1287.03 22.6293 1288.53 27.9987 1288.53 34.2509H1290.53C1290.53 27.6651 1288.94 21.9028 1285.73 17.0053L1284.06 18.1014ZM1288.53 34.2509C1288.53 40.2619 1287.11 45.4751 1284.29 49.927L1285.98 50.9949C1289.02 46.184 1290.53 40.5904 1290.53 34.2509H1288.53ZM1284.29 49.931C1281.56 54.3043 1277.61 57.7592 1272.39 60.2866L1273.27 62.0862C1278.78 59.4134 1283.03 55.718 1285.99 50.991L1284.29 49.931ZM1272.01 61.7523L1290.41 88.5659L1292.06 87.4341L1273.65 60.6205L1272.01 61.7523ZM1291.23 87H1265.39V89H1291.23V87ZM1266.22 87.4361L1250.74 64.7664L1249.09 65.8942L1264.57 88.5639L1266.22 87.4361ZM1266.15 34.2509C1266.15 30.0412 1264.81 26.6544 1262.03 24.234L1260.72 25.7421C1262.97 27.7094 1264.15 30.4978 1264.15 34.2509H1266.15ZM1262.03 24.234C1259.26 21.8201 1255.24 20.6973 1250.16 20.6973V22.6973C1254.99 22.6973 1258.45 23.7683 1260.72 25.7421L1262.03 24.234ZM1250.16 20.6973H1236.75V22.6973H1250.16V20.6973ZM1235.75 21.6973V46.6827H1237.75V21.6973H1235.75ZM1236.75 47.6827H1250.16V45.6827H1236.75V47.6827ZM1250.16 47.6827C1255.24 47.6827 1259.24 46.6038 1262.02 44.28L1260.73 42.7476C1258.46 44.649 1255 45.6827 1250.16 45.6827V47.6827ZM1262.03 44.2679C1264.81 41.8475 1266.15 38.4606 1266.15 34.2509H1264.15C1264.15 38.0041 1262.97 40.7924 1260.72 42.7597L1262.03 44.2679Z" fill="white" fill-opacity="0.2"/>
</svg>
