<svg width="883" height="90" viewBox="0 0 883 90" fill="none" xmlns="http://www.w3.org/2000/svg">
<path d="M22.9346 84.1L22.3917 85.1048L22.3986 85.1085L22.4055 85.1121L22.9346 84.1ZM6.23758 68.2561L7.21587 67.6668L6.23758 68.2561ZM6.23758 22.4308L5.25928 21.8414L6.23758 22.4308ZM22.9346 6.70877L23.4684 7.71843L23.4726 7.71619L22.9346 6.70877ZM68.1505 5.12439L67.6892 6.16917V6.16917L68.1505 5.12439ZM83.7506 17.0682L84.5169 17.9151L85.3124 17.1954L84.6438 16.3565L83.7506 17.0682ZM68.3943 30.9621L67.5151 31.6911L68.2763 32.609L69.1605 31.809L68.3943 30.9621ZM35.8534 24.0152L35.2987 23.0167L35.2892 23.0221L35.8534 24.0152ZM27.444 32.6683L26.4405 32.123L26.4363 32.1309L27.444 32.6683ZM27.444 58.1404L26.4314 58.6687L26.4383 58.682L26.4456 58.6951L27.444 58.1404ZM35.8534 66.6717L35.2892 67.6648L35.2988 67.6701L35.8534 66.6717ZM68.3943 59.7248L69.1605 58.8779L68.2763 58.0779L67.5151 58.9958L68.3943 59.7248ZM83.7506 73.6186L84.6438 74.3304L85.3124 73.4915L84.5169 72.7717L83.7506 73.6186ZM68.1505 85.5625L67.6892 84.5177L68.1505 85.5625ZM47.066 88.5642C38.2925 88.5642 30.4334 86.7311 23.4637 83.0878L22.4055 85.1121C29.7358 88.9439 37.9644 90.8484 47.066 90.8484V88.5642ZM23.4774 83.0951C16.5844 79.3713 11.1708 74.2319 7.21587 67.6668L5.25928 68.8454C9.42944 75.7679 15.1471 81.191 22.3917 85.1048L23.4774 83.0951ZM7.21587 67.6668C3.26943 61.1157 1.28588 53.6851 1.28588 45.3434H-0.998315C-0.998315 54.0645 1.08067 61.9089 5.25928 68.8454L7.21587 67.6668ZM1.28588 45.3434C1.28588 37.0018 3.26943 29.5712 7.21587 23.0201L5.25928 21.8414C1.08067 28.7779 -0.998315 36.6224 -0.998315 45.3434H1.28588ZM7.21587 23.0201C11.1695 16.4571 16.5802 11.3605 23.4684 7.71843L22.4007 5.69912C15.1513 9.53213 9.43074 14.9168 5.25928 21.8414L7.21587 23.0201ZM23.4726 7.71619C30.4406 3.99465 38.2965 2.1227 47.066 2.1227V-0.161489C37.9604 -0.161489 29.7286 1.78535 22.3965 5.70136L23.4726 7.71619ZM47.066 2.1227C54.7294 2.1227 61.5973 3.47924 67.6892 6.16917L68.6119 4.07962C62.1912 1.2445 55.0027 -0.161489 47.066 -0.161489V2.1227ZM67.6892 6.16917C73.7818 8.85939 78.832 12.7284 82.8575 17.78L84.6438 16.3565C80.3817 11.008 75.0319 6.91443 68.6119 4.07961L67.6892 6.16917ZM82.9844 16.2213L67.628 30.1152L69.1605 31.809L84.5169 17.9151L82.9844 16.2213ZM69.2734 30.233C63.5556 23.338 56.5421 19.8262 48.2848 19.8262V22.1104C55.79 22.1104 62.1829 25.2611 67.5151 31.6911L69.2734 30.233ZM48.2848 19.8262C43.4807 19.8262 39.1424 20.8814 35.2988 23.0168L36.4081 25.0135C39.877 23.0863 43.8263 22.1104 48.2848 22.1104V19.8262ZM35.2892 23.0221C31.5222 25.1625 28.5699 28.205 26.4405 32.123L28.4475 33.2137C30.3806 29.6567 33.0345 26.9304 36.4176 25.0082L35.2892 23.0221ZM26.4363 32.1309C24.3851 35.9768 23.3769 40.3918 23.3769 45.3434H25.6611C25.6611 40.7075 26.6029 36.6724 28.4517 33.2058L26.4363 32.1309ZM23.3769 45.3434C23.3769 50.2957 24.3853 54.7469 26.4314 58.6687L28.4565 57.6121C26.6027 54.0588 25.6611 49.9787 25.6611 45.3434H23.3769ZM26.4456 58.6951C28.5768 62.5312 31.5287 65.5281 35.2892 67.6647L36.4176 65.6787C33.0281 63.7528 30.3737 61.0622 28.4424 57.5858L26.4456 58.6951ZM35.2988 67.6701C39.1424 69.8054 43.4807 70.8607 48.2848 70.8607V68.5765C43.8263 68.5765 39.877 67.6005 36.4081 65.6733L35.2988 67.6701ZM48.2848 70.8607C56.5421 70.8607 63.5556 67.3489 69.2734 60.4538L67.5151 58.9958C62.1829 65.4258 55.79 68.5765 48.2848 68.5765V70.8607ZM67.628 60.5717L82.9844 74.4655L84.5169 72.7717L69.1605 58.8779L67.628 60.5717ZM82.8575 72.9069C78.832 77.9585 73.7818 81.8275 67.6892 84.5177L68.6119 86.6073C75.0319 83.7724 80.3817 79.6789 84.6438 74.3304L82.8575 72.9069ZM67.6892 84.5177C61.5973 87.2076 54.7294 88.5642 47.066 88.5642V90.8484C55.0027 90.8484 62.1912 89.4424 68.6119 86.6073L67.6892 84.5177ZM117.466 83.9781L116.927 84.9855L116.932 84.988L117.466 83.9781ZM100.525 68.1342L99.5464 68.7236L99.5517 68.7321L100.525 68.1342ZM100.525 22.5526L99.5517 21.9547L99.5465 21.9633L100.525 22.5526ZM117.466 6.70877L116.932 5.69884L116.927 5.70136L117.466 6.70877ZM166.094 6.70877L165.556 7.7162L165.561 7.71869L166.094 6.70877ZM183.035 22.5526L182.056 23.142L182.062 23.1506L183.035 22.5526ZM183.035 68.1342L182.062 67.5363L182.056 67.5449L183.035 68.1342ZM166.094 83.9781L165.561 82.9682L165.556 82.9707L166.094 83.9781ZM153.541 66.6717L154.115 67.6591L153.541 66.6717ZM161.828 58.1404L162.827 58.6951L162.832 58.6858L161.828 58.1404ZM161.828 32.6683L160.825 33.2137L160.83 33.223L161.828 32.6683ZM153.541 24.0152L154.115 23.0278L153.541 24.0152ZM130.141 24.0152L129.567 23.0278L130.141 24.0152ZM121.853 32.6683L122.851 33.223L122.857 33.2137L121.853 32.6683ZM121.853 58.1404L120.85 58.6858L120.855 58.6951L121.853 58.1404ZM130.141 66.6717L130.715 65.6844L130.141 66.6717ZM141.841 88.5642C132.988 88.5642 125.049 86.6915 117.999 82.9682L116.932 84.988C124.344 88.9023 132.655 90.8484 141.841 90.8484V88.5642ZM118.004 82.9707C111.028 79.245 105.533 74.1031 101.498 67.5363L99.5517 68.7321C103.804 75.6529 109.603 81.0737 116.927 84.9855L118.004 82.9707ZM101.503 67.5449C97.5556 60.9921 95.5731 53.6016 95.5731 45.3434H93.2889C93.2889 53.9854 95.3689 61.7888 99.5465 68.7236L101.503 67.5449ZM95.5731 45.3434C95.5731 37.0853 97.5556 29.6948 101.503 23.142L99.5465 21.9633C95.3689 28.8981 93.2889 36.7015 93.2889 45.3434H95.5731ZM101.498 23.1506C105.533 16.5838 111.028 11.4419 118.004 7.71619L116.927 5.70136C109.603 9.61321 103.804 15.0339 99.5517 21.9547L101.498 23.1506ZM117.999 7.7187C125.049 3.99538 132.988 2.1227 141.841 2.1227V-0.161489C132.655 -0.161489 124.344 1.78461 116.932 5.69885L117.999 7.7187ZM141.841 2.1227C150.693 2.1227 158.589 3.99544 165.556 7.71619L166.632 5.70136C159.298 1.78455 151.026 -0.161489 141.841 -0.161489V2.1227ZM165.561 7.71869C172.616 11.4443 178.105 16.5833 182.056 23.142L184.013 21.9633C179.839 15.0343 174.035 9.61078 166.627 5.69885L165.561 7.71869ZM182.062 23.1506C186.087 29.7023 188.108 37.0896 188.108 45.3434H190.393C190.393 36.6971 188.27 28.8906 184.008 21.9547L182.062 23.1506ZM188.108 45.3434C188.108 53.5973 186.087 60.9846 182.062 67.5363L184.008 68.7321C188.27 61.7962 190.393 53.9897 190.393 45.3434H188.108ZM182.056 67.5449C178.105 74.1035 172.616 79.2425 165.561 82.9682L166.627 84.988C174.035 81.0761 179.839 75.6525 184.013 68.7236L182.056 67.5449ZM165.556 82.9707C158.589 86.6914 150.693 88.5642 141.841 88.5642V90.8484C151.026 90.8484 159.298 88.9023 166.632 84.9855L165.556 82.9707ZM141.841 70.8607C146.335 70.8607 150.435 69.7984 154.115 67.6591L152.967 65.6844C149.659 67.6076 145.959 68.5765 141.841 68.5765V70.8607ZM154.115 67.6591C157.793 65.5207 160.699 62.5246 162.827 58.6951L160.83 57.5858C158.895 61.0688 156.276 63.7602 152.967 65.6844L154.115 67.6591ZM162.832 58.6858C164.965 54.7606 166.017 50.3032 166.017 45.3434H163.733C163.733 49.9713 162.754 54.0452 160.825 57.595L162.832 58.6858ZM166.017 45.3434C166.017 40.3843 164.965 35.9631 162.827 32.1137L160.83 33.223C162.754 36.6862 163.733 40.715 163.733 45.3434H166.017ZM162.832 32.123C160.706 28.2117 157.799 25.1699 154.115 23.0278L152.967 25.0025C156.27 26.9229 158.888 29.65 160.825 33.2137L162.832 32.123ZM154.115 23.0278C150.435 20.8885 146.335 19.8262 141.841 19.8262V22.1104C145.959 22.1104 149.659 23.0793 152.967 25.0025L154.115 23.0278ZM141.841 19.8262C137.346 19.8262 133.246 20.8885 129.567 23.0278L130.715 25.0025C134.023 23.0793 137.722 22.1104 141.841 22.1104V19.8262ZM129.567 23.0278C125.882 25.1699 122.975 28.2117 120.85 32.123L122.857 33.2137C124.793 29.65 127.411 26.9229 130.715 25.0025L129.567 23.0278ZM120.855 32.1137C118.716 35.9631 117.664 40.3843 117.664 45.3434H119.948C119.948 40.715 120.927 36.6862 122.851 33.223L120.855 32.1137ZM117.664 45.3434C117.664 50.3032 118.716 54.7605 120.85 58.6858L122.857 57.595C120.927 54.0452 119.948 49.9713 119.948 45.3434H117.664ZM120.855 58.6951C122.982 62.5246 125.889 65.5207 129.567 67.6591L130.715 65.6844C127.405 63.7602 124.786 61.0688 122.851 57.5858L120.855 58.6951ZM129.567 67.6591C133.246 69.7984 137.346 70.8607 141.841 70.8607V68.5765C137.722 68.5765 134.023 67.6076 130.715 65.6844L129.567 67.6591ZM289.152 2.68687H290.295V1.54477H289.152V2.68687ZM289.152 88V89.1421H290.295V88H289.152ZM269.287 88L268.407 88.7286L268.75 89.1421H269.287V88ZM231.627 42.5403L232.507 41.8117L230.485 39.3714V42.5403H231.627ZM231.627 88V89.1421H232.769V88H231.627ZM207.983 88H206.841V89.1421H207.983V88ZM207.983 2.68687V1.54477H206.841V2.68687H207.983ZM227.849 2.68687L228.728 1.95827L228.386 1.54477H227.849V2.68687ZM265.509 48.1466L264.629 48.8752L266.651 51.3155V48.1466H265.509ZM265.509 2.68687V1.54477H264.366V2.68687H265.509ZM288.01 2.68687V88H290.295V2.68687H288.01ZM289.152 86.8579H269.287V89.1421H289.152V86.8579ZM270.166 87.2714L232.507 41.8117L230.748 43.2689L268.407 88.7286L270.166 87.2714ZM230.485 42.5403V88H232.769V42.5403H230.485ZM231.627 86.8579H207.983V89.1421H231.627V86.8579ZM209.125 88V2.68687H206.841V88H209.125ZM207.983 3.82897H227.849V1.54477H207.983V3.82897ZM226.969 3.41547L264.629 48.8752L266.388 47.418L228.728 1.95827L226.969 3.41547ZM266.651 48.1466V2.68687H264.366V48.1466H266.651ZM265.509 3.82897H289.152V1.54477H265.509V3.82897ZM330.427 21.8214H331.57V20.6793H330.427V21.8214ZM304.224 21.8214H303.082V22.9635H304.224V21.8214ZM304.224 2.68687V1.54477H303.082V2.68687H304.224ZM380.64 2.68687H381.782V1.54477H380.64V2.68687ZM380.64 21.8214V22.9635H381.782V21.8214H380.64ZM354.559 21.8214V20.6793H353.417V21.8214H354.559ZM354.559 88V89.1421H355.701V88H354.559ZM330.427 88H329.285V89.1421H330.427V88ZM330.427 20.6793H304.224V22.9635H330.427V20.6793ZM305.366 21.8214V2.68687H303.082V21.8214H305.366ZM304.224 3.82897H380.64V1.54477H304.224V3.82897ZM379.498 2.68687V21.8214H381.782V2.68687H379.498ZM380.64 20.6793H354.559V22.9635H380.64V20.6793ZM353.417 21.8214V88H355.701V21.8214H353.417ZM354.559 86.8579H330.427V89.1421H354.559V86.8579ZM331.57 88V21.8214H329.285V88H331.57ZM448.599 71.4249L449.658 70.9967L449.37 70.2828H448.599V71.4249ZM412.524 71.4249V70.2828H411.754L411.465 70.9967L412.524 71.4249ZM405.821 88V89.1421H406.591L406.88 88.4282L405.821 88ZM381.202 88L380.157 87.5388L379.45 89.1421H381.202V88ZM418.862 2.68687V1.54477H418.117L417.817 2.22565L418.862 2.68687ZM442.628 2.68687L443.672 2.22441L443.371 1.54477H442.628V2.68687ZM480.409 88V89.1421H482.164L481.453 87.5375L480.409 88ZM455.303 88L454.244 88.4282L454.533 89.1421H455.303V88ZM441.531 53.631V54.7731H443.22L442.59 53.2052L441.531 53.631ZM430.562 26.3308L431.622 25.905L430.562 23.2674L429.502 25.905L430.562 26.3308ZM419.593 53.631L418.533 53.2052L417.903 54.7731H419.593V53.631ZM448.599 70.2828H412.524V72.567H448.599V70.2828ZM411.465 70.9967L404.762 87.5718L406.88 88.4282L413.583 71.8531L411.465 70.9967ZM405.821 86.8579H381.202V89.1421H405.821V86.8579ZM382.247 88.4612L419.907 3.14809L417.817 2.22565L380.157 87.5388L382.247 88.4612ZM418.862 3.82897H442.628V1.54477H418.862V3.82897ZM441.583 3.14933L479.365 88.4625L481.453 87.5375L443.672 2.22441L441.583 3.14933ZM480.409 86.8579H455.303V89.1421H480.409V86.8579ZM456.361 87.5718L449.658 70.9967L447.541 71.8531L454.244 88.4282L456.361 87.5718ZM442.59 53.2052L431.622 25.905L429.502 26.7566L440.471 54.0568L442.59 53.2052ZM429.502 25.905L418.533 53.2052L420.653 54.0568L431.622 26.7566L429.502 25.905ZM419.593 54.7731H441.531V52.4889H419.593V54.7731ZM510.557 84.1L510.014 85.1048L510.021 85.1085L510.028 85.1121L510.557 84.1ZM493.86 68.2561L494.838 67.6668L493.86 68.2561ZM493.86 22.4308L492.882 21.8414L493.86 22.4308ZM510.557 6.70877L511.091 7.71843L511.095 7.71619L510.557 6.70877ZM555.773 5.12439L555.312 6.16917V6.16917L555.773 5.12439ZM571.373 17.0682L572.139 17.9151L572.935 17.1954L572.266 16.3565L571.373 17.0682ZM556.017 30.9621L555.138 31.6911L555.899 32.609L556.783 31.809L556.017 30.9621ZM523.476 24.0152L522.921 23.0167L522.912 23.0221L523.476 24.0152ZM515.067 32.6683L514.063 32.123L514.059 32.1309L515.067 32.6683ZM515.067 58.1404L514.054 58.6687L514.061 58.682L514.068 58.6951L515.067 58.1404ZM523.476 66.6717L522.912 67.6648L522.921 67.6701L523.476 66.6717ZM556.017 59.7248L556.783 58.8779L555.899 58.0779L555.138 58.9958L556.017 59.7248ZM571.373 73.6186L572.266 74.3304L572.935 73.4915L572.139 72.7717L571.373 73.6186ZM555.773 85.5625L555.312 84.5177L555.773 85.5625ZM534.689 88.5642C525.915 88.5642 518.056 86.7311 511.086 83.0878L510.028 85.1121C517.358 88.9439 525.587 90.8484 534.689 90.8484V88.5642ZM511.1 83.0951C504.207 79.3713 498.793 74.2319 494.838 67.6668L492.882 68.8454C497.052 75.7679 502.77 81.191 510.014 85.1048L511.1 83.0951ZM494.838 67.6668C490.892 61.1157 488.908 53.6851 488.908 45.3434H486.624C486.624 54.0645 488.703 61.9089 492.882 68.8454L494.838 67.6668ZM488.908 45.3434C488.908 37.0018 490.892 29.5712 494.838 23.0201L492.882 21.8414C488.703 28.7779 486.624 36.6224 486.624 45.3434H488.908ZM494.838 23.0201C498.792 16.4571 504.203 11.3605 511.091 7.71843L510.023 5.69912C502.774 9.53213 497.053 14.9168 492.882 21.8414L494.838 23.0201ZM511.095 7.71619C518.063 3.99465 525.919 2.1227 534.689 2.1227V-0.161489C525.583 -0.161489 517.351 1.78535 510.019 5.70136L511.095 7.71619ZM534.689 2.1227C542.352 2.1227 549.22 3.47924 555.312 6.16917L556.234 4.07962C549.814 1.2445 542.625 -0.161489 534.689 -0.161489V2.1227ZM555.312 6.16917C561.404 8.85939 566.455 12.7284 570.48 17.78L572.266 16.3565C568.004 11.008 562.654 6.91443 556.234 4.07961L555.312 6.16917ZM570.607 16.2213L555.251 30.1152L556.783 31.809L572.139 17.9151L570.607 16.2213ZM556.896 30.233C551.178 23.338 544.165 19.8262 535.907 19.8262V22.1104C543.413 22.1104 549.805 25.2611 555.138 31.6911L556.896 30.233ZM535.907 19.8262C531.103 19.8262 526.765 20.8814 522.921 23.0168L524.031 25.0135C527.5 23.0863 531.449 22.1104 535.907 22.1104V19.8262ZM522.912 23.0221C519.145 25.1625 516.192 28.205 514.063 32.123L516.07 33.2137C518.003 29.6567 520.657 26.9304 524.04 25.0082L522.912 23.0221ZM514.059 32.1309C512.008 35.9768 510.999 40.3918 510.999 45.3434H513.284C513.284 40.7075 514.225 36.6724 516.074 33.2058L514.059 32.1309ZM510.999 45.3434C510.999 50.2957 512.008 54.7469 514.054 58.6687L516.079 57.6121C514.225 54.0588 513.284 49.9787 513.284 45.3434H510.999ZM514.068 58.6951C516.199 62.5312 519.151 65.5281 522.912 67.6647L524.04 65.6787C520.651 63.7528 517.996 61.0622 516.065 57.5858L514.068 58.6951ZM522.921 67.6701C526.765 69.8054 531.103 70.8607 535.907 70.8607V68.5765C531.449 68.5765 527.5 67.6005 524.031 65.6733L522.921 67.6701ZM535.907 70.8607C544.165 70.8607 551.178 67.3489 556.896 60.4538L555.138 58.9958C549.805 65.4258 543.413 68.5765 535.907 68.5765V70.8607ZM555.251 60.5717L570.607 74.4655L572.139 72.7717L556.783 58.8779L555.251 60.5717ZM570.48 72.9069C566.455 77.9585 561.404 81.8275 555.312 84.5177L556.234 86.6073C562.654 83.7724 568.004 79.6789 572.266 74.3304L570.48 72.9069ZM555.312 84.5177C549.22 87.2076 542.352 88.5642 534.689 88.5642V90.8484C542.625 90.8484 549.814 89.4424 556.234 86.6073L555.312 84.5177ZM605.672 21.8214H606.814V20.6793H605.672V21.8214ZM579.468 21.8214H578.326V22.9635H579.468V21.8214ZM579.468 2.68687V1.54477H578.326V2.68687H579.468ZM655.885 2.68687H657.027V1.54477H655.885V2.68687ZM655.885 21.8214V22.9635H657.027V21.8214H655.885ZM629.803 21.8214V20.6793H628.661V21.8214H629.803ZM629.803 88V89.1421H630.945V88H629.803ZM605.672 88H604.53V89.1421H605.672V88ZM605.672 20.6793H579.468V22.9635H605.672V20.6793ZM580.611 21.8214V2.68687H578.326V21.8214H580.611ZM579.468 3.82897H655.885V1.54477H579.468V3.82897ZM654.743 2.68687V21.8214H657.027V2.68687H654.743ZM655.885 20.6793H629.803V22.9635H655.885V20.6793ZM628.661 21.8214V88H630.945V21.8214H628.661ZM629.803 86.8579H605.672V89.1421H629.803V86.8579ZM606.814 88V21.8214H604.53V88H606.814ZM722.28 79.3468L721.477 80.1591L721.482 80.1637L722.28 79.3468ZM711.799 2.68687V1.54477H710.657V2.68687H711.799ZM735.93 2.68687H737.073V1.54477H735.93V2.68687ZM768.228 2.68687V1.54477H767.085V2.68687H768.228ZM791.993 2.68687H793.135V1.54477H791.993V2.68687ZM781.39 79.3468L780.592 78.5299L780.587 78.5345L781.39 79.3468ZM751.896 88.5642C739.431 88.5642 729.878 85.1734 723.078 78.5299L721.482 80.1637C728.82 87.3328 739.011 90.8484 751.896 90.8484V88.5642ZM723.083 78.5345C716.371 71.9002 712.941 62.4373 712.941 49.9747H710.657C710.657 62.8623 714.215 72.9808 721.477 80.1591L723.083 78.5345ZM712.941 49.9747V2.68687H710.657V49.9747H712.941ZM711.799 3.82897H735.93V1.54477H711.799V3.82897ZM734.788 2.68687V49.2435H737.073V2.68687H734.788ZM734.788 49.2435C734.788 56.1885 736.158 61.6081 739.087 65.3087C742.057 69.0602 746.481 70.8607 752.14 70.8607V68.5765C746.993 68.5765 743.312 66.9645 740.878 63.8909C738.405 60.7665 737.073 55.9486 737.073 49.2435H734.788ZM752.14 70.8607C757.762 70.8607 762.155 69.0581 765.104 65.3054C768.011 61.6052 769.37 56.187 769.37 49.2435H767.085C767.085 55.95 765.763 60.7694 763.308 63.8942C760.894 66.9666 757.243 68.5765 752.14 68.5765V70.8607ZM769.37 49.2435V2.68687H767.085V49.2435H769.37ZM768.228 3.82897H791.993V1.54477H768.228V3.82897ZM790.851 2.68687V49.9747H793.135V2.68687H790.851ZM790.851 49.9747C790.851 62.4336 787.383 71.8949 780.592 78.5299L782.188 80.1637C789.535 72.9861 793.135 62.866 793.135 49.9747H790.851ZM780.587 78.5345C773.871 85.1732 764.362 88.5642 751.896 88.5642V90.8484C764.781 90.8484 774.935 87.333 782.193 80.1591L780.587 78.5345ZM824.307 87.1469L824.597 86.0422L824.307 87.1469ZM808.463 80.3218L807.419 79.8573L807.036 80.7175L807.808 81.2575L808.463 80.3218ZM816.385 62.5279L817.014 61.5745L815.889 60.8329L815.341 62.0634L816.385 62.5279ZM829.669 68.6217L830.004 67.5298L829.669 68.6217ZM854.41 58.6279L853.925 59.662L853.944 59.671L853.964 59.6793L854.41 58.6279ZM841.735 54.8498L841.983 53.7348L841.975 53.7332L841.735 54.8498ZM825.647 50.4622L825.244 51.5308L825.253 51.5341L825.262 51.5373L825.647 50.4622ZM814.191 14.6307L815.133 15.277L815.138 15.2684L814.191 14.6307ZM826.866 4.63689L826.416 3.58712L826.411 3.58951L826.866 4.63689ZM864.282 2.93063L864.017 4.04148L864.025 4.04336L864.032 4.04513L864.282 2.93063ZM878.663 8.41504L879.718 8.85277L880.099 7.93463L879.242 7.43062L878.663 8.41504ZM871.229 26.3308L870.686 27.3357L871.799 27.9366L872.284 26.7685L871.229 26.3308ZM837.104 21.9433L837.712 22.9097L837.725 22.9018L837.737 22.8935L837.104 21.9433ZM837.713 32.5465L837.255 33.5928L837.713 32.5465ZM850.266 36.0809L850.504 34.9637L850.502 34.9634L850.266 36.0809ZM866.354 40.5903L865.944 41.6562L865.956 41.6609L865.968 41.6654L866.354 40.5903ZM877.445 48.1466L876.589 48.9029L876.598 48.9134L876.608 48.9237L877.445 48.1466ZM877.932 76.0562L876.99 75.4099V75.4099L877.932 76.0562ZM865.135 86.05L865.585 87.0998L865.598 87.0943L865.135 86.05ZM844.416 88.5642C837.605 88.5642 830.999 87.7229 824.597 86.0422L824.017 88.2515C830.614 89.9833 837.415 90.8484 844.416 90.8484V88.5642ZM824.597 86.0422C818.184 84.3589 813.038 82.1303 809.118 79.3862L807.808 81.2575C812.013 84.2008 817.429 86.5224 824.017 88.2515L824.597 86.0422ZM809.506 80.7863L817.428 62.9924L815.341 62.0634L807.419 79.8573L809.506 80.7863ZM815.756 63.4813C819.678 66.0684 824.208 68.1428 829.335 69.7137L830.004 67.5298C825.055 66.0132 820.729 64.025 817.014 61.5745L815.756 63.4813ZM829.335 69.7137C834.472 71.288 839.541 72.0795 844.538 72.0795V69.7953C839.785 69.7953 834.942 69.043 830.004 67.5298L829.335 69.7137ZM844.538 72.0795C849.228 72.0795 852.915 71.4993 855.469 70.2222C856.763 69.5755 857.801 68.7323 858.514 67.6632C859.231 66.587 859.574 65.3481 859.574 63.9904H857.29C857.29 64.9484 857.054 65.7357 856.613 66.3962C856.168 67.0639 855.47 67.668 854.448 68.1791C852.371 69.2176 849.111 69.7953 844.538 69.7953V72.0795ZM859.574 63.9904C859.574 62.5483 859.172 61.2461 858.34 60.1364C857.518 59.0397 856.327 58.2007 854.856 57.5765L853.964 59.6793C855.174 60.1927 855.995 60.8161 856.513 61.5069C857.021 62.1848 857.29 62.995 857.29 63.9904H859.574ZM854.895 57.5938C852.175 56.3187 847.846 55.0379 841.983 53.7349L841.487 55.9647C847.324 57.2617 851.445 58.4996 853.925 59.662L854.895 57.5938ZM841.975 53.7332C835.586 52.3584 830.276 50.9083 826.033 49.3871L825.262 51.5373C829.631 53.1036 835.046 54.5786 841.495 55.9663L841.975 53.7332ZM826.05 49.3937C821.921 47.8352 818.378 45.384 815.412 42.0277L813.701 43.5403C816.91 47.1716 820.761 49.8392 825.244 51.5308L826.05 49.3937ZM815.412 42.0277C812.555 38.7947 811.067 34.3773 811.067 28.6464H808.783C808.783 34.7782 810.383 39.7859 813.701 43.5403L815.412 42.0277ZM811.067 28.6464C811.067 23.6686 812.424 19.2236 815.133 15.277L813.249 13.9845C810.27 18.3254 808.783 23.2242 808.783 28.6464H811.067ZM815.138 15.2684C817.838 11.2575 821.874 8.05252 827.321 5.68427L826.411 3.58951C820.645 6.09628 816.231 9.55389 813.243 13.993L815.138 15.2684ZM827.316 5.68664C832.823 3.32643 839.607 2.1227 847.707 2.1227V-0.161489C839.394 -0.161489 832.284 1.0723 826.416 3.58714L827.316 5.68664ZM847.707 2.1227C853.224 2.1227 858.66 2.76226 864.017 4.04148L864.547 1.81977C859.016 0.498966 853.402 -0.161489 847.707 -0.161489V2.1227ZM864.032 4.04513C869.378 5.242 874.058 7.03094 878.084 9.39945L879.242 7.43062C874.981 4.92409 870.073 3.05676 864.531 1.81612L864.032 4.04513ZM877.608 7.97729L870.174 25.8931L872.284 26.7685L879.718 8.85277L877.608 7.97729ZM871.772 25.3259C863.514 20.867 855.448 18.6074 847.585 18.6074V20.8916C854.997 20.8916 862.693 23.0195 870.686 27.3357L871.772 25.3259ZM847.585 18.6074C842.725 18.6074 838.951 19.3393 836.47 20.993L837.737 22.8935C839.644 21.6222 842.857 20.8916 847.585 20.8916V18.6074ZM836.495 20.9768C834.024 22.5327 832.671 24.6997 832.671 27.4277H834.955C834.955 25.6056 835.796 24.1163 837.712 22.9097L836.495 20.9768ZM832.671 27.4277C832.671 28.7991 833.068 30.0412 833.88 31.1058C834.679 32.1553 835.833 32.9705 837.255 33.5928L838.171 31.5001C836.993 30.9849 836.197 30.3782 835.696 29.7215C835.208 29.0798 834.955 28.3313 834.955 27.4277H832.671ZM837.255 33.5928C839.968 34.7796 844.248 35.9768 850.03 37.1983L850.502 34.9634C844.747 33.7474 840.658 32.5883 838.171 31.5001L837.255 33.5928ZM850.029 37.198C856.495 38.572 861.794 40.0602 865.944 41.6562L866.764 39.5243C862.463 37.8703 857.038 36.3523 850.504 34.9637L850.029 37.198ZM865.968 41.6654C870.09 43.1429 873.626 45.5504 876.589 48.9029L878.3 47.3903C875.088 43.7552 871.23 41.1252 866.739 39.5152L865.968 41.6654ZM876.608 48.9237C879.531 52.0718 881.056 56.4374 881.056 62.1623H883.34C883.34 56.0246 881.696 51.0464 878.281 47.3694L876.608 48.9237ZM881.056 62.1623C881.056 67.0549 879.701 71.4601 876.99 75.4099L878.874 76.7024C881.851 72.3647 883.34 67.5073 883.34 62.1623H881.056ZM876.99 75.4099C874.292 79.342 870.212 82.5523 864.673 85.0057L865.598 87.0943C871.433 84.5101 875.885 81.0579 878.874 76.7024L876.99 75.4099ZM864.685 85.0002C859.177 87.361 852.433 88.5642 844.416 88.5642V90.8484C852.65 90.8484 859.718 89.614 865.585 87.0997L864.685 85.0002Z" fill="black" fill-opacity="0.2"/>
</svg>
