<svg width="632" height="90" viewBox="0 0 632 90" fill="none" xmlns="http://www.w3.org/2000/svg">
<path d="M37.8253 65.3311L38.7685 64.6871L38.4285 64.189H37.8253V65.3311ZM24.6627 65.3311V64.189H23.5206V65.3311H24.6627ZM24.6627 88V89.1421H25.8048V88H24.6627ZM0.531313 88H-0.610784V89.1421H0.531313V88ZM0.531313 2.68687V1.54477H-0.610784V2.68687H0.531313ZM59.6411 6.5869L59.1663 7.62568L59.1787 7.63117L59.6411 6.5869ZM72.8037 17.5557L71.8435 18.1742L71.8484 18.1816L72.8037 17.5557ZM73.0475 50.4622L72.0818 49.8523L72.079 49.8569L73.0475 50.4622ZM60.738 61.1873L60.2397 60.1596L59.045 60.7389L59.7964 61.8336L60.738 61.1873ZM79.1413 88V89.1421H81.3104L80.0829 87.3537L79.1413 88ZM53.3036 88L52.3604 88.644L52.7005 89.1421H53.3036V88ZM24.6627 21.6995V20.5574H23.5206V21.6995H24.6627ZM24.6627 46.6841H23.5206V47.8262H24.6627V46.6841ZM49.2817 43.5153L50.0156 44.3904L50.0238 44.3835L50.0318 44.3765L49.2817 43.5153ZM37.8253 64.189H24.6627V66.4732H37.8253V64.189ZM23.5206 65.3311V88H25.8048V65.3311H23.5206ZM24.6627 86.8579H0.531313V89.1421H24.6627V86.8579ZM1.67341 88V2.68687H-0.610784V88H1.67341ZM0.531313 3.82897H39.5316V1.54477H0.531313V3.82897ZM39.5316 3.82897C47.124 3.82897 53.6584 5.10773 59.1663 7.62561L60.116 5.54819C54.2487 2.86603 47.3768 1.54477 39.5316 1.54477V3.82897ZM59.1787 7.63117C64.6816 10.0682 68.8877 13.5849 71.8435 18.1742L73.7639 16.9373C70.5447 11.939 65.9757 8.14315 60.1036 5.54262L59.1787 7.63117ZM71.8484 18.1816C74.7977 22.6832 76.2929 28.0244 76.2929 34.2527H78.5771C78.5771 27.6434 76.9848 21.8534 73.759 16.9298L71.8484 18.1816ZM76.2929 34.2527C76.2929 40.2402 74.8774 45.4261 72.0818 49.8523L74.0131 51.0721C77.0676 46.2358 78.5771 40.6154 78.5771 34.2527H76.2929ZM72.079 49.8569C69.3614 54.205 65.431 57.6426 60.2397 60.1596L61.2363 62.215C66.7701 59.5319 71.046 55.8195 74.016 51.0675L72.079 49.8569ZM59.7964 61.8336L78.1996 88.6463L80.0829 87.3537L61.6796 60.541L59.7964 61.8336ZM79.1413 86.8579H53.3036V89.1421H79.1413V86.8579ZM54.2468 87.356L38.7685 64.6871L36.8821 65.9751L52.3604 88.644L54.2468 87.356ZM54.2019 34.2527C54.2019 30.0107 52.8476 26.5814 50.0318 24.1289L48.5316 25.8514C50.7533 27.7864 51.9177 30.5322 51.9177 34.2527H54.2019ZM50.0318 24.1289C47.2246 21.6839 43.1713 20.5574 38.0691 20.5574V22.8416C42.8794 22.8416 46.3013 23.9089 48.5316 25.8514L50.0318 24.1289ZM38.0691 20.5574H24.6627V22.8416H38.0691V20.5574ZM23.5206 21.6995V46.6841H25.8048V21.6995H23.5206ZM24.6627 47.8262H38.0691V45.542H24.6627V47.8262ZM38.0691 47.8262C43.1627 47.8262 47.2092 46.7441 50.0156 44.3904L48.5477 42.6402C46.3166 44.5115 42.888 45.542 38.0691 45.542V47.8262ZM50.0318 44.3765C52.8476 41.924 54.2019 38.4947 54.2019 34.2527H51.9177C51.9177 37.9733 50.7533 40.719 48.5316 42.6541L50.0318 44.3765ZM165.336 69.353H166.478V68.2109H165.336V69.353ZM165.336 88V89.1421H166.478V88H165.336ZM96.8418 88H95.6997V89.1421H96.8418V88ZM96.8418 2.68687V1.54477H95.6997V2.68687H96.8418ZM163.752 2.68687H164.894V1.54477H163.752V2.68687ZM163.752 21.3339V22.476H164.894V21.3339H163.752ZM120.73 21.3339V20.1918H119.587V21.3339H120.73ZM120.73 35.7152H119.587V36.8573H120.73V35.7152ZM158.633 35.7152H159.775V34.5731H158.633V35.7152ZM158.633 53.7529V54.895H159.775V53.7529H158.633ZM120.73 53.7529V52.6108H119.587V53.7529H120.73ZM120.73 69.353H119.587V70.4951H120.73V69.353ZM164.194 69.353V88H166.478V69.353H164.194ZM165.336 86.8579H96.8418V89.1421H165.336V86.8579ZM97.9839 88V2.68687H95.6997V88H97.9839ZM96.8418 3.82897H163.752V1.54477H96.8418V3.82897ZM162.61 2.68687V21.3339H164.894V2.68687H162.61ZM163.752 20.1918H120.73V22.476H163.752V20.1918ZM119.587 21.3339V35.7152H121.872V21.3339H119.587ZM120.73 36.8573H158.633V34.5731H120.73V36.8573ZM157.491 35.7152V53.7529H159.775V35.7152H157.491ZM158.633 52.6108H120.73V54.895H158.633V52.6108ZM119.587 53.7529V69.353H121.872V53.7529H119.587ZM120.73 70.4951H165.336V68.2109H120.73V70.4951ZM270.163 2.68687L271.212 3.13676L271.895 1.54477H270.163V2.68687ZM233.6 88V89.1421H234.353L234.65 88.4499L233.6 88ZM209.834 88L208.784 88.4486L209.08 89.1421H209.834V88ZM173.393 2.68687V1.54477H171.663L172.343 3.13549L173.393 2.68687ZM199.475 2.68687L200.529 2.2476L200.236 1.54477H199.475V2.68687ZM222.631 58.2623L221.577 58.7015L222.62 61.2054L223.682 58.7094L222.631 58.2623ZM246.275 2.68687V1.54477H245.52L245.224 2.23976L246.275 2.68687ZM269.113 2.23698L232.55 87.5501L234.65 88.4499L271.212 3.13676L269.113 2.23698ZM233.6 86.8579H209.834V89.1421H233.6V86.8579ZM210.884 87.5514L174.444 2.23824L172.343 3.13549L208.784 88.4486L210.884 87.5514ZM173.393 3.82897H199.475V1.54477H173.393V3.82897ZM198.42 3.12614L221.577 58.7015L223.685 57.823L200.529 2.2476L198.42 3.12614ZM223.682 58.7094L247.326 3.13398L245.224 2.23976L221.58 57.8152L223.682 58.7094ZM246.275 3.82897H270.163V1.54477H246.275V3.82897ZM281.251 2.68687V1.54477H280.108V2.68687H281.251ZM305.382 2.68687H306.524V1.54477H305.382V2.68687ZM305.382 88V89.1421H306.524V88H305.382ZM281.251 88H280.108V89.1421H281.251V88ZM281.251 3.82897H305.382V1.54477H281.251V3.82897ZM304.24 2.68687V88H306.524V2.68687H304.24ZM305.382 86.8579H281.251V89.1421H305.382V86.8579ZM282.393 88V2.68687H280.108V88H282.393ZM397.138 69.353H398.28V68.2109H397.138V69.353ZM397.138 88V89.1421H398.28V88H397.138ZM328.644 88H327.502V89.1421H328.644V88ZM328.644 2.68687V1.54477H327.502V2.68687H328.644ZM395.554 2.68687H396.696V1.54477H395.554V2.68687ZM395.554 21.3339V22.476H396.696V21.3339H395.554ZM352.532 21.3339V20.1918H351.39V21.3339H352.532ZM352.532 35.7152H351.39V36.8573H352.532V35.7152ZM390.435 35.7152H391.577V34.5731H390.435V35.7152ZM390.435 53.7529V54.895H391.577V53.7529H390.435ZM352.532 53.7529V52.6108H351.39V53.7529H352.532ZM352.532 69.353H351.39V70.4951H352.532V69.353ZM395.996 69.353V88H398.28V69.353H395.996ZM397.138 86.8579H328.644V89.1421H397.138V86.8579ZM329.786 88V2.68687H327.502V88H329.786ZM328.644 3.82897H395.554V1.54477H328.644V3.82897ZM394.412 2.68687V21.3339H396.696V2.68687H394.412ZM395.554 20.1918H352.532V22.476H395.554V20.1918ZM351.39 21.3339V35.7152H353.674V21.3339H351.39ZM352.532 36.8573H390.435V34.5731H352.532V36.8573ZM389.293 35.7152V53.7529H391.577V35.7152H389.293ZM390.435 52.6108H352.532V54.895H390.435V52.6108ZM351.39 53.7529V69.353H353.674V53.7529H351.39ZM352.532 70.4951H397.138V68.2109H352.532V70.4951ZM549.253 2.68687L550.339 3.03917L550.824 1.54477H549.253V2.68687ZM521.587 88V89.1421H522.417L522.673 88.3523L521.587 88ZM495.749 88L494.66 88.3427L494.911 89.1421H495.749V88ZM479.418 36.0809L480.507 35.7382L479.442 32.3503L478.333 35.7243L479.418 36.0809ZM462.355 88V89.1421H463.182L463.44 88.3566L462.355 88ZM436.518 88L435.431 88.3523L435.687 89.1421H436.518V88ZM408.852 2.68687V1.54477H407.281L407.765 3.03917L408.852 2.68687ZM433.714 2.68687L434.804 2.3433L434.552 1.54477H433.714V2.68687ZM450.899 57.1654L449.81 57.509L450.873 60.8785L451.983 57.5244L450.899 57.1654ZM468.937 2.68687V1.54477H468.112L467.852 2.32789L468.937 2.68687ZM491.118 2.68687L492.208 2.34607L491.957 1.54477H491.118V2.68687ZM508.302 57.6529L507.212 57.9937L508.28 61.4079L509.388 58.0068L508.302 57.6529ZM526.218 2.68687V1.54477H525.389L525.132 2.33294L526.218 2.68687ZM548.166 2.33457L520.501 87.6477L522.673 88.3523L550.339 3.03917L548.166 2.33457ZM521.587 86.8579H495.749V89.1421H521.587V86.8579ZM496.839 87.6573L480.507 35.7382L478.328 36.4236L494.66 88.3427L496.839 87.6573ZM478.333 35.7243L461.27 87.6434L463.44 88.3566L480.503 36.4374L478.333 35.7243ZM462.355 86.8579H436.518V89.1421H462.355V86.8579ZM437.604 87.6477L409.938 2.33457L407.765 3.03917L435.431 88.3523L437.604 87.6477ZM408.852 3.82897H433.714V1.54477H408.852V3.82897ZM432.625 3.03044L449.81 57.509L451.988 56.8218L434.804 2.3433L432.625 3.03044ZM451.983 57.5244L470.021 3.04585L467.852 2.32789L449.815 56.8064L451.983 57.5244ZM468.937 3.82897H491.118V1.54477H468.937V3.82897ZM490.028 3.02767L507.212 57.9937L509.393 57.3121L492.208 2.34607L490.028 3.02767ZM509.388 58.0068L527.304 3.0408L525.132 2.33294L507.217 57.299L509.388 58.0068ZM526.218 3.82897H549.253V1.54477H526.218V3.82897ZM573.865 87.1469L574.155 86.0422L573.865 87.1469ZM558.021 80.3218L556.978 79.8573L556.595 80.7175L557.366 81.2575L558.021 80.3218ZM565.943 62.5279L566.572 61.5745L565.448 60.8329L564.9 62.0634L565.943 62.5279ZM579.228 68.6217L579.562 67.5298L579.228 68.6217ZM603.968 58.6279L603.484 59.662L603.503 59.671L603.522 59.6793L603.968 58.6279ZM591.293 54.8498L591.541 53.7348L591.534 53.7332L591.293 54.8498ZM575.206 50.4622L574.802 51.5308L574.811 51.5341L574.82 51.5373L575.206 50.4622ZM563.749 14.6307L564.691 15.277L564.697 15.2684L563.749 14.6307ZM576.424 4.63689L575.974 3.58712L575.969 3.58951L576.424 4.63689ZM613.84 2.93063L613.575 4.04148L613.583 4.04336L613.591 4.04513L613.84 2.93063ZM628.222 8.41504L629.276 8.85277L629.658 7.93463L628.801 7.43062L628.222 8.41504ZM620.787 26.3308L620.245 27.3357L621.357 27.9366L621.842 26.7685L620.787 26.3308ZM586.662 21.9433L587.271 22.9097L587.283 22.9018L587.295 22.8935L586.662 21.9433ZM587.271 32.5465L586.814 33.5928L587.271 32.5465ZM599.825 36.0809L600.062 34.9637L600.061 34.9634L599.825 36.0809ZM615.912 40.5903L615.502 41.6562L615.514 41.6609L615.527 41.6654L615.912 40.5903ZM627.003 48.1466L626.147 48.9029L626.156 48.9134L626.166 48.9237L627.003 48.1466ZM627.49 76.0562L626.549 75.4099V75.4099L627.49 76.0562ZM614.693 86.05L615.143 87.0998L615.156 87.0943L614.693 86.05ZM593.974 88.5642C587.163 88.5642 580.558 87.7229 574.155 86.0422L573.575 88.2515C580.172 89.9833 586.973 90.8484 593.974 90.8484V88.5642ZM574.155 86.0422C567.742 84.3589 562.596 82.1303 558.676 79.3862L557.366 81.2575C561.571 84.2008 566.988 86.5224 573.575 88.2515L574.155 86.0422ZM559.065 80.7863L566.986 62.9924L564.9 62.0634L556.978 79.8573L559.065 80.7863ZM565.314 63.4813C569.237 66.0684 573.767 68.1428 578.893 69.7137L579.562 67.5298C574.613 66.0132 570.287 64.025 566.572 61.5745L565.314 63.4813ZM578.893 69.7137C584.03 71.288 589.099 72.0795 594.096 72.0795V69.7953C589.344 69.7953 584.5 69.043 579.562 67.5298L578.893 69.7137ZM594.096 72.0795C598.786 72.0795 602.473 71.4993 605.028 70.2222C606.321 69.5755 607.359 68.7323 608.072 67.6632C608.79 66.587 609.132 65.3481 609.132 63.9904H606.848C606.848 64.9484 606.612 65.7357 606.172 66.3962C605.727 67.0639 605.028 67.668 604.006 68.1791C601.929 69.2176 598.669 69.7953 594.096 69.7953V72.0795ZM609.132 63.9904C609.132 62.5483 608.731 61.2461 607.898 60.1364C607.076 59.0397 605.886 58.2007 604.414 57.5765L603.522 59.6793C604.732 60.1927 605.553 60.8161 606.071 61.5069C606.579 62.1848 606.848 62.995 606.848 63.9904H609.132ZM604.453 57.5938C601.733 56.3187 597.405 55.0379 591.541 53.7349L591.045 55.9647C596.882 57.2617 601.004 58.4996 603.484 59.662L604.453 57.5938ZM591.534 53.7332C585.145 52.3584 579.834 50.9083 575.591 49.3871L574.82 51.5373C579.189 53.1036 584.604 54.5786 591.053 55.9663L591.534 53.7332ZM575.609 49.3937C571.479 47.8352 567.937 45.384 564.971 42.0277L563.259 43.5403C566.468 47.1716 570.32 49.8392 574.802 51.5308L575.609 49.3937ZM564.971 42.0277C562.114 38.7947 560.626 34.3773 560.626 28.6464H558.342C558.342 34.7782 559.941 39.7859 563.259 43.5403L564.971 42.0277ZM560.626 28.6464C560.626 23.6686 561.982 19.2236 564.691 15.277L562.808 13.9845C559.829 18.3254 558.342 23.2242 558.342 28.6464H560.626ZM564.697 15.2684C567.396 11.2575 571.433 8.05252 576.88 5.68427L575.969 3.58951C570.203 6.09628 565.79 9.55389 562.802 13.993L564.697 15.2684ZM576.874 5.68664C582.381 3.32643 589.166 2.1227 597.265 2.1227V-0.161489C588.952 -0.161489 581.842 1.0723 575.974 3.58714L576.874 5.68664ZM597.265 2.1227C602.782 2.1227 608.218 2.76226 613.575 4.04148L614.106 1.81977C608.575 0.498966 602.961 -0.161489 597.265 -0.161489V2.1227ZM613.591 4.04513C618.937 5.242 623.616 7.03094 627.643 9.39945L628.801 7.43062C624.54 4.92409 619.631 3.05676 614.09 1.81612L613.591 4.04513ZM627.167 7.97729L619.732 25.8931L621.842 26.7685L629.276 8.85277L627.167 7.97729ZM621.33 25.3259C613.073 20.867 605.006 18.6074 597.143 18.6074V20.8916C604.556 20.8916 612.252 23.0195 620.245 27.3357L621.33 25.3259ZM597.143 18.6074C592.284 18.6074 588.509 19.3393 586.028 20.993L587.295 22.8935C589.203 21.6222 592.415 20.8916 597.143 20.8916V18.6074ZM586.053 20.9768C583.582 22.5327 582.229 24.6997 582.229 27.4277H584.513C584.513 25.6056 585.354 24.1163 587.271 22.9097L586.053 20.9768ZM582.229 27.4277C582.229 28.7991 582.627 30.0412 583.438 31.1058C584.237 32.1553 585.391 32.9705 586.814 33.5928L587.729 31.5001C586.551 30.9849 585.755 30.3782 585.255 29.7215C584.766 29.0798 584.513 28.3313 584.513 27.4277H582.229ZM586.814 33.5928C589.526 34.7796 593.807 35.9768 599.589 37.1983L600.061 34.9634C594.305 33.7474 590.216 32.5883 587.729 31.5001L586.814 33.5928ZM599.587 37.198C606.053 38.572 611.353 40.0602 615.502 41.6562L616.322 39.5243C612.022 37.8703 606.596 36.3523 600.062 34.9637L599.587 37.198ZM615.527 41.6654C619.648 43.1429 623.184 45.5504 626.147 48.9029L627.859 47.3903C624.646 43.7552 620.789 41.1252 616.298 39.5152L615.527 41.6654ZM626.166 48.9237C629.089 52.0718 630.614 56.4374 630.614 62.1623H632.898C632.898 56.0246 631.254 51.0464 627.84 47.3694L626.166 48.9237ZM630.614 62.1623C630.614 67.0549 629.259 71.4601 626.549 75.4099L628.432 76.7024C631.409 72.3647 632.898 67.5073 632.898 62.1623H630.614ZM626.549 75.4099C623.85 79.342 619.771 82.5523 614.231 85.0057L615.156 87.0943C620.991 84.5101 625.443 81.0579 628.432 76.7024L626.549 75.4099ZM614.244 85.0002C608.735 87.361 601.991 88.5642 593.974 88.5642V90.8484C602.208 90.8484 609.277 89.614 615.143 87.0997L614.244 85.0002Z" fill="black" fill-opacity="0.2"/>
</svg>
